<svg xmlns="http://www.w3.org/2000/svg" xmlns:xlink="http://www.w3.org/1999/xlink" width="1500" zoomAndPan="magnify" viewBox="0 0 1125 749.999995" height="1000" preserveAspectRatio="xMidYMid meet" version="1.0"><defs><clipPath id="a1f64d803b"><path d="M 0 0 L 185.25 0 L 185.25 750 L 0 750 Z M 0 0 " clip-rule="nonzero"/></clipPath></defs><g clip-path="url(#a1f64d803b)"><path fill="#faf2e9" d="M 149.382812 432.769531 C 134.800781 447.320312 126.890625 454.410156 116.933594 461.855469 C 100.953125 473.800781 98.347656 475.441406 98.347656 473.558594 C 98.347656 471.929688 129.699219 440.480469 134.125 437.664062 C 135.847656 436.570312 138.015625 434.824219 138.941406 433.785156 C 140.496094 432.046875 140.511719 431.855469 139.117188 431.320312 C 137.1875 430.578125 131.027344 434.820312 119.625 444.734375 C 114.851562 448.890625 110.222656 452.496094 109.339844 452.746094 C 108.457031 452.996094 104.71875 453.449219 101.027344 453.753906 C 91.261719 454.558594 77.691406 456.007812 74.96875 456.542969 C 72.949219 456.9375 72.472656 456.59375 71.609375 454.125 C 71.058594 452.546875 70.742188 451.113281 70.910156 450.949219 C 71.074219 450.785156 77.015625 449.652344 84.109375 448.429688 C 98.09375 446.023438 105.988281 443.972656 106.886719 442.523438 C 107.199219 442.015625 111.335938 438.515625 116.078125 434.738281 C 120.820312 430.964844 125.855469 426.558594 127.265625 424.949219 C 128.679688 423.339844 130.398438 422.023438 131.085938 422.023438 C 131.773438 422.023438 132.335938 421.605469 132.335938 421.101562 C 132.335938 418.464844 128.367188 419.714844 114.175781 426.835938 C 103.179688 432.359375 97.261719 434.804688 93.425781 435.417969 C 90.472656 435.886719 83.832031 436.921875 78.667969 437.710938 C 73.5 438.503906 68.648438 439.324219 67.882812 439.539062 C 66.867188 439.816406 66.09375 438.6875 65.039062 435.390625 C 63.976562 432.066406 63.871094 430.78125 64.644531 430.570312 C 65.222656 430.40625 68.714844 429.589844 72.402344 428.753906 C 85.636719 425.761719 95.203125 422.117188 104.648438 416.460938 C 109.785156 413.382812 116.980469 409.855469 120.636719 408.617188 C 124.292969 407.378906 127.445312 405.867188 127.648438 405.253906 C 128.347656 403.097656 122.726562 404.074219 107.289062 408.785156 C 102.617188 410.207031 95.570312 411.777344 91.636719 412.261719 C 87.699219 412.75 83.875 413.324219 83.140625 413.542969 C 82.402344 413.765625 77.570312 414.539062 72.402344 415.269531 C 67.242188 416 62.007812 416.8125 60.777344 417.078125 C 58.828125 417.5 58.28125 417.027344 56.5 413.410156 C 55.378906 411.128906 54.574219 409.195312 54.710938 409.117188 C 55.285156 408.796875 78.378906 402.566406 83.140625 401.445312 C 90.957031 399.609375 105.402344 394.832031 109.523438 392.726562 C 112.234375 391.339844 126.855469 379.128906 130.023438 375.605469 C 131.0625 374.453125 132.359375 373.894531 133.304688 374.191406 C 135.453125 374.875 136.339844 373.117188 134.375 372.078125 C 133.5 371.617188 127.46875 371.019531 120.972656 370.753906 C 112.050781 370.390625 107.882812 369.804688 103.910156 368.355469 C 97.902344 366.164062 90.007812 360.570312 89.546875 358.171875 C 89.257812 356.664062 89.777344 356.601562 97.144531 357.292969 C 101.496094 357.699219 106.460938 357.984375 108.183594 357.929688 C 109.90625 357.875 116.949219 357.527344 123.839844 357.160156 C 136.765625 356.464844 136.628906 356.453125 158.910156 360.828125 C 162.453125 361.523438 166.195312 362.09375 167.21875 362.09375 C 170.269531 362.09375 175.734375 365.359375 176.875 367.863281 C 177.460938 369.148438 178.316406 373.507812 178.777344 377.550781 C 179.234375 381.59375 180.003906 385.929688 180.484375 387.191406 C 183.433594 394.9375 175.207031 406.992188 149.382812 432.769531 Z M 126.597656 461.039062 C 122.402344 471.871094 120.28125 494.113281 121.601562 513.4375 C 122.964844 533.386719 124.242188 561.515625 124.265625 572.160156 L 124.285156 581.417969 L 116.820312 566.347656 C 112.714844 558.054688 108.105469 548.054688 106.578125 544.117188 C 105.046875 540.183594 100.320312 528.105469 96.070312 517.285156 C 91.820312 506.460938 86.617188 492.777344 84.503906 486.871094 C 82.390625 480.96875 79.207031 472.636719 77.425781 468.363281 C 75.652344 464.085938 74.191406 460.445312 74.191406 460.273438 C 74.191406 460.101562 76.710938 459.855469 79.785156 459.726562 C 82.859375 459.597656 90.207031 458.984375 96.109375 458.359375 C 102.011719 457.738281 107.042969 457.402344 107.289062 457.613281 C 107.535156 457.824219 106.785156 458.640625 105.617188 459.421875 C 102.433594 461.5625 94.765625 472.105469 94.765625 474.34375 C 94.765625 475.425781 95.511719 476.980469 96.417969 477.804688 C 98.234375 479.449219 97.578125 479.820312 118.972656 465.0625 C 124.375 461.335938 127.023438 459.941406 126.597656 461.039062 Z M 68.535156 446.042969 C 68.25 444.960938 68.191406 443.800781 68.398438 443.460938 C 68.605469 443.125 71.425781 442.578125 74.660156 442.246094 C 88.539062 440.824219 103.851562 436.460938 112.65625 431.417969 C 115.484375 429.796875 116.085938 429.742188 114.414062 431.257812 C 113.691406 431.910156 110.339844 434.566406 106.96875 437.167969 L 100.832031 441.886719 L 86.722656 444.382812 C 78.964844 445.757812 71.816406 447.136719 70.835938 447.445312 C 69.488281 447.875 68.921875 447.527344 68.535156 446.042969 Z M 61.09375 424.082031 C 60.371094 422.351562 59.949219 420.765625 60.15625 420.558594 C 60.363281 420.351562 65.207031 419.601562 70.917969 418.890625 C 82.167969 417.496094 91.601562 416.019531 96.554688 414.878906 C 100.734375 413.917969 101.027344 413.890625 101.027344 414.480469 C 101.027344 415.300781 88.472656 420.804688 83.140625 422.320312 C 80.433594 423.089844 74.664062 424.507812 70.3125 425.472656 L 62.410156 427.230469 Z M 51.679688 400.179688 C 50.394531 396.695312 48.019531 389.304688 46.410156 383.746094 C 44.796875 378.191406 43.011719 373.011719 42.441406 372.234375 C 41.636719 371.128906 42.058594 367.847656 44.378906 357.285156 C 51.070312 326.835938 56.21875 310.953125 74.066406 265.734375 C 80.28125 249.976562 87.578125 229.035156 94.015625 208.460938 L 104.160156 176.03125 L 105.292969 182.519531 C 105.914062 186.089844 107.484375 193.386719 108.777344 198.734375 C 111.820312 211.332031 116.84375 221.191406 132.726562 245.761719 C 148.25 269.773438 150.613281 274.648438 150.53125 282.507812 C 150.460938 289.019531 148.726562 293.289062 143.09375 300.839844 C 139.09375 306.203125 132.238281 309.914062 123.726562 311.324219 C 116.121094 312.582031 116.027344 313.847656 123.457031 315.078125 L 126.65625 315.601562 L 128.152344 327.042969 C 128.976562 333.335938 129.652344 341.316406 129.652344 344.777344 L 129.652344 351.074219 L 126.296875 352.085938 C 119 354.28125 109.847656 355.089844 99.21875 354.480469 C 87.578125 353.816406 85.820312 354.289062 85.820312 358.109375 C 85.820312 362.746094 94.328125 368.964844 104.183594 371.527344 C 106.933594 372.246094 113.082031 373.265625 117.847656 373.796875 C 122.617188 374.328125 126.605469 374.847656 126.707031 374.953125 C 126.808594 375.054688 122.941406 378.394531 118.113281 382.375 C 108.964844 389.90625 105.320312 391.585938 85.375 397.445312 C 82.425781 398.308594 79 399.332031 77.773438 399.710938 C 76.542969 400.09375 72.71875 401.085938 69.273438 401.914062 C 65.832031 402.742188 62.207031 403.722656 61.226562 404.089844 C 60.242188 404.460938 58.21875 405.15625 56.730469 405.636719 L 54.023438 406.511719 Z M 185.242188 387.839844 C 185.074219 379.042969 183.808594 370.070312 182.277344 366.84375 C 180.945312 364.039062 173.4375 359.921875 168.183594 359.113281 C 157.1875 357.429688 140.082031 353.941406 137.46875 352.847656 L 134.390625 351.5625 L 133.785156 340.503906 C 133.449219 334.421875 132.933594 325.96875 132.636719 321.71875 L 132.09375 313.988281 L 137.519531 310.535156 C 143.59375 306.671875 150.878906 298.226562 153.3125 292.222656 C 156.089844 285.375 156.121094 278.476562 153.402344 271.304688 C 150.210938 262.867188 147.527344 258.25 133.644531 237.316406 C 119.632812 216.1875 117.253906 211.6875 113.652344 199.523438 C 108.132812 180.890625 106.964844 168.828125 109.507812 156.8125 C 112.160156 144.304688 110.886719 136.546875 103.777344 121.796875 C 98.472656 110.792969 94.148438 105.65625 89.542969 104.878906 C 82.550781 103.707031 83.125 105.632812 83.433594 84.289062 C 83.605469 72.453125 84.066406 64.738281 84.648438 64.15625 C 85.648438 63.15625 102.320312 56.191406 109.125 53.929688 C 111.671875 53.089844 114.753906 50.996094 117.347656 48.34375 C 124.566406 40.980469 125.003906 36.785156 119.9375 23.535156 C 116.945312 15.71875 116.667969 14.367188 117.71875 12.824219 C 119.207031 10.636719 119.296875 2.359375 117.84375 0.910156 C 116.339844 -0.601562 115.464844 -0.378906 110.652344 2.71875 C 108.316406 4.222656 103.988281 6.109375 101.03125 6.917969 C 97.039062 8.011719 93.808594 9.847656 88.5 14.035156 C 82.277344 18.949219 80.117188 21.300781 81.828125 21.300781 C 82.84375 21.300781 90.890625 16.859375 93.738281 14.726562 C 95.382812 13.492188 98.402344 12.207031 100.445312 11.867188 C 104.765625 11.144531 108.695312 9.332031 111.539062 6.730469 L 113.550781 4.886719 L 113.550781 8.234375 C 113.550781 10.476562 112.769531 12.601562 111.191406 14.675781 C 108.675781 17.96875 108.796875 19.367188 111.460938 17.875 C 112.886719 17.074219 113.257812 17.574219 114.574219 22.039062 C 115.398438 24.828125 116.777344 28.9375 117.640625 31.167969 C 118.566406 33.558594 118.976562 36.152344 118.640625 37.492188 C 117.898438 40.453125 111.3125 46.9375 108.300781 47.675781 C 107.007812 48 101.925781 50.023438 97.003906 52.179688 C 79.796875 59.71875 66.210938 65.105469 62.023438 66.042969 C 59.703125 66.566406 54.9375 67.023438 51.4375 67.0625 C 45.851562 67.128906 44.308594 66.75 38.835938 63.992188 C 35.40625 62.253906 28.171875 57.582031 22.761719 53.609375 C 17.351562 49.632812 12.320312 46.382812 11.582031 46.390625 C 10.070312 46.402344 10.1875 46.507812 24.34375 58.199219 C 29.554688 62.503906 35.929688 67.332031 38.507812 68.933594 C 43.101562 71.78125 43.382812 71.835938 53.105469 71.71875 C 62.648438 71.597656 66.761719 70.710938 76.878906 66.554688 C 78.039062 66.078125 78.21875 68.023438 78.21875 80.996094 C 78.21875 93.585938 78.472656 96.445312 79.785156 98.851562 C 82.835938 104.429688 82.972656 104.414062 58.625 101.214844 C 49.875 100.066406 46.542969 100 39.953125 100.84375 C 30.75 102.027344 29.167969 102.726562 18.605469 110.304688 C 14.355469 113.351562 7.792969 117.542969 4.027344 119.609375 C -2.335938 123.101562 -4.613281 125.261719 -3.308594 126.566406 C -2.375 127.503906 12.320312 120.429688 20.703125 115.011719 C 34.632812 106.003906 34.679688 105.984375 47.359375 105.898438 C 63.078125 105.796875 88.070312 107.792969 91.175781 109.398438 C 94.035156 110.878906 102.511719 126.511719 104.964844 134.835938 C 107.917969 144.867188 107.089844 150.257812 98.347656 177.835938 C 95.464844 186.933594 90.007812 204.644531 86.222656 217.1875 C 82.4375 229.734375 77.351562 245.230469 74.917969 251.625 C 62.8125 283.449219 59.191406 293.421875 53.148438 311.558594 C 49.542969 322.378906 45.53125 336.265625 44.234375 342.414062 C 42.9375 348.566406 40.71875 357.417969 39.296875 362.09375 C 35.28125 375.304688 31.910156 388.988281 32.523438 389.597656 C 33.449219 390.523438 34.539062 388.722656 36.179688 383.558594 C 38.867188 375.089844 37.617188 373.070312 49.761719 405.476562 C 53.445312 415.316406 59.0625 430.972656 62.242188 440.273438 C 65.417969 449.574219 69.859375 461.648438 72.113281 467.105469 C 74.363281 472.566406 77.925781 481.863281 80.023438 487.769531 C 87.902344 509.914062 105.597656 551.949219 114.121094 568.753906 C 123.933594 588.097656 133.230469 609.925781 133.230469 613.625 C 133.230469 614.949219 135.128906 625.011719 137.445312 635.980469 C 141.984375 657.464844 141.917969 656.761719 140.90625 673.410156 C 140.390625 681.882812 139.847656 685.128906 138.675781 686.6875 L 137.121094 688.738281 L 135.484375 686.242188 C 134.25 684.359375 133.671875 680.988281 133.125 672.523438 C 132.527344 663.175781 131.96875 660.242188 129.796875 655.035156 C 127.332031 649.113281 127.265625 648.640625 128.601562 646.328125 C 129.382812 644.988281 130.941406 642.890625 132.070312 641.675781 C 134.574219 638.972656 134.625 638.488281 132.375 638.488281 C 130.035156 638.488281 124.824219 645.441406 122.488281 651.679688 C 120.0625 658.164062 117.511719 673.382812 116.238281 689.023438 C 116.238281 689.023438 116.03125 698.511719 115.214844 701.542969 C 114.347656 704.777344 109.464844 713.644531 109.464844 713.644531 C 106.300781 720.296875 103.710938 726.035156 103.710938 726.386719 C 103.710938 726.734375 102.449219 729.84375 100.910156 733.292969 C 97.960938 739.882812 95.453125 741.527344 94.449219 737.511719 C 93.882812 735.273438 94.6875 731.933594 99.671875 715.859375 C 102.558594 706.535156 103.058594 703.589844 103.472656 693.480469 C 103.773438 686.175781 103.5625 680.035156 102.910156 677.003906 C 102.203125 673.695312 102.167969 671.875 102.792969 671.246094 C 104.441406 669.59375 103.828125 667.859375 101.699219 668.164062 C 98.425781 668.625 95.285156 675.984375 91.648438 691.703125 C 89.828125 699.578125 87.734375 708.222656 86.996094 710.921875 C 85.421875 716.664062 71.722656 746.863281 70.269531 747.804688 C 69.722656 748.152344 68.734375 747.902344 68.074219 747.242188 C 66.40625 745.570312 69.480469 730.394531 74.613281 714.972656 C 78.96875 701.878906 79.863281 698.394531 82.292969 685.019531 C 84.988281 670.195312 84.535156 665.765625 80.382812 666.359375 C 77.304688 666.804688 71.3125 677.042969 59.324219 702.34375 C 49.351562 723.394531 44.601562 730.902344 42.550781 728.847656 C 40.8125 727.109375 43.652344 717.449219 51.375 698.8125 C 63.242188 670.1875 66.144531 662.21875 66.144531 658.21875 C 66.144531 652.808594 65.613281 652.980469 53.902344 662.191406 C 45.992188 668.410156 38.28125 675.042969 29.226562 683.421875 C 23.054688 689.128906 19.121094 692.148438 18.269531 691.820312 C 15.460938 690.746094 16.980469 688.347656 29.335938 674.355469 C 56.117188 644.039062 54.519531 646.636719 69.238281 609.382812 C 74.476562 596.117188 79.398438 584.777344 80.179688 584.179688 C 83.597656 581.566406 78.773438 569.640625 65.25 547.25 C 60.644531 539.625 54.140625 529.285156 50.792969 524.273438 C 39.320312 507.082031 21.808594 477.730469 11.910156 459.089844 C 9.804688 455.121094 5.496094 445.863281 2.339844 438.515625 C -0.820312 431.164062 -6.652344 418.261719 -10.628906 409.839844 C -14.605469 401.414062 -18.332031 392.632812 -18.910156 390.324219 C -20.304688 384.789062 -19.46875 377.410156 -16.230469 366.703125 C -13.25 356.847656 -5.859375 324.851562 -0.0820312 296.796875 C 1.390625 289.664062 4.21875 277.992188 6.210938 270.859375 C 8.199219 263.722656 11.871094 249.636719 14.363281 239.550781 C 16.859375 229.46875 20.070312 217.019531 21.5 211.890625 C 24.960938 199.503906 24.957031 194.648438 21.488281 191.179688 C 18.964844 188.65625 14.265625 187.535156 14.265625 189.460938 C 14.265625 189.953125 14.886719 190.355469 15.644531 190.355469 C 16.40625 190.355469 18.015625 191.34375 19.222656 192.550781 C 22.207031 195.535156 22.058594 198.722656 18.34375 211.515625 C 16.652344 217.339844 14.25 226.414062 13.007812 231.679688 C 11.765625 236.941406 8.113281 250.609375 4.890625 262.046875 C 1.671875 273.488281 -2.183594 288.902344 -3.675781 296.308594 C -6.996094 312.796875 -9.074219 321.140625 -13.035156 333.957031 C -14.71875 339.386719 -16.976562 347.640625 -18.058594 352.292969 L -20.027344 360.753906 L -25.546875 338.839844 C -28.585938 326.785156 -32.761719 310.886719 -34.824219 303.507812 C -38.492188 290.414062 -41.429688 276.609375 -46.160156 250.285156 C -49.480469 231.796875 -50.664062 207.945312 -49.339844 186.332031 C -48.085938 165.914062 -46.722656 158.859375 -42.621094 151.582031 C -38.949219 145.066406 -29.878906 133.675781 -23.046875 126.988281 L -18.160156 122.210938 L -20.253906 131.460938 C -21.402344 136.546875 -22.964844 144.535156 -23.722656 149.210938 C -24.484375 153.882812 -25.292969 158.816406 -25.523438 160.167969 C -25.753906 161.519531 -25.578125 162.628906 -25.140625 162.628906 C -24.164062 162.628906 -22.871094 158.640625 -21.511719 151.445312 C -20.953125 148.492188 -18.132812 136.621094 -15.246094 125.058594 C -12.355469 113.5 -9.566406 100.628906 -9.042969 96.460938 C -8.019531 88.253906 -7.761719 69.730469 -8.640625 67.4375 C -9.777344 64.476562 -10.78125 66.222656 -10.78125 71.167969 C -10.789062 83.46875 -13.871094 107.375 -16.238281 113.5 C -16.730469 114.765625 -21.324219 119.9375 -26.445312 124.988281 C -42.144531 140.457031 -49.082031 150.824219 -51.488281 162.40625 C -55.113281 179.816406 -54.921875 225.433594 -51.144531 245.8125 C -50.183594 250.976562 -48.527344 260.4375 -47.457031 266.832031 C -45.222656 280.183594 -41.199219 296.425781 -35.421875 315.4375 C -33.203125 322.730469 -30.804688 331.484375 -30.082031 334.886719 C -29.359375 338.289062 -27.152344 346.695312 -25.171875 353.566406 L -21.574219 366.054688 L -23.410156 373.242188 C -26.703125 386.121094 -25.246094 392.183594 -12.726562 417.625 L -4.667969 434.007812 L -8.300781 440.761719 C -18.652344 459.992188 -23.390625 467.589844 -30.015625 475.59375 C -39.378906 486.898438 -43.453125 493.425781 -51.921875 510.675781 C -64.351562 536 -66.605469 546.4375 -66.597656 578.554688 C -66.59375 594.246094 -66.164062 603.554688 -65.078125 611.316406 C -63.441406 623.054688 -60.480469 634.011719 -58.949219 634.011719 C -58.410156 634.011719 -58.207031 633.140625 -58.484375 632 C -61.257812 620.679688 -62.210938 608.089844 -62.203125 583.027344 C -62.1875 554.128906 -61.5625 548.703125 -56.347656 532.523438 C -51.511719 517.503906 -38.402344 492.480469 -30.234375 482.664062 C -21.667969 472.371094 -12.148438 458.175781 -7.664062 449.019531 C -5.214844 444.011719 -2.984375 439.914062 -2.703125 439.914062 C -2.429688 439.914062 0.0625 444.640625 2.835938 450.421875 C 5.609375 456.203125 9.867188 464.351562 12.308594 468.535156 C 14.746094 472.71875 22.273438 485.800781 29.039062 497.605469 C 35.808594 509.414062 44.652344 523.902344 48.691406 529.808594 C 57.128906 542.128906 71.378906 566.210938 75.132812 574.484375 L 77.683594 580.109375 L 73.164062 590.738281 C 70.679688 596.582031 66.324219 607.402344 63.492188 614.78125 C 53.886719 639.796875 52.207031 642.617188 33.988281 664.3125 C 13.871094 688.28125 13.175781 689.339844 15.113281 692.964844 C 17.230469 696.917969 20.691406 694.828125 38.386719 678.890625 C 43.539062 674.253906 49.777344 668.914062 52.25 667.027344 C 54.726562 665.136719 58.273438 662.328125 60.128906 660.773438 L 63.507812 657.949219 L 61.375 663.648438 C 60.203125 666.785156 55.371094 678.917969 50.644531 690.625 C 38.347656 721.046875 36.714844 727 39.820312 730.105469 C 40.59375 730.875 42.15625 731.507812 43.292969 731.507812 C 47.515625 731.507812 50.9375 726.222656 64.140625 699.324219 C 71.253906 684.820312 77.839844 671.984375 78.765625 670.800781 L 80.457031 668.652344 L 80.457031 673.933594 C 80.457031 676.832031 79.417969 684.230469 78.152344 690.371094 C 75.929688 701.144531 74.3125 706.910156 68.78125 723.6875 C 67.359375 727.992188 65.5625 734.921875 64.78125 739.074219 C 63.472656 746.074219 63.480469 746.804688 64.855469 748.914062 C 66.609375 751.582031 69.625 751.875 72.226562 749.621094 C 73.988281 748.097656 82.511719 730.398438 87.691406 717.507812 C 89.105469 713.992188 92.289062 703.550781 94.765625 694.3125 C 97.242188 685.078125 99.421875 677.363281 99.613281 677.171875 C 99.804688 676.984375 100.246094 680.695312 100.601562 685.425781 C 101.316406 694.929688 100.785156 700.851562 98.703125 706.648438 C 95.886719 714.503906 91.1875 732.816406 91.203125 735.914062 C 91.21875 739.648438 91.78125 740.6875 94.605469 742.171875 C 96.304688 743.066406 97.066406 743.007812 98.832031 741.851562 C 101.378906 740.1875 102.382812 738.382812 109.332031 723.015625 C 117.875 704.105469 118.292969 702.453125 122.078125 672.476562 C 123.609375 660.367188 125.015625 653.691406 126.039062 653.691406 C 127.292969 653.691406 128.8125 660.867188 129.683594 670.867188 C 130.167969 676.429688 130.769531 682.230469 131.023438 683.773438 C 131.949219 689.417969 138.421875 693.363281 141.222656 689.980469 C 141.808594 689.28125 142.886719 682.636719 143.625 675.210938 C 145.105469 660.328125 145.269531 661.902344 138.210938 623.28125 C 135.125 606.386719 134.617188 604.605469 129.984375 594.5 L 125.871094 585.53125 L 126.320312 539.332031 C 126.785156 491.707031 127.21875 484.8125 131.007812 464.957031 L 133.140625 453.777344 L 146.429688 440.808594 C 164.90625 422.78125 179.679688 405.902344 183.449219 398.511719 C 184.976562 395.523438 185.34375 393.316406 185.242188 387.839844 " fill-opacity="1" fill-rule="nonzero"/></g></svg>