<svg xmlns="http://www.w3.org/2000/svg" xmlns:xlink="http://www.w3.org/1999/xlink" width="1500" zoomAndPan="magnify" viewBox="0 0 1125 749.999995" height="1000" preserveAspectRatio="xMidYMid meet" version="1.0"><defs><clipPath id="85c0d81236"><path d="M 914.21875 0 L 1118 0 L 1118 750 L 914.21875 750 Z M 914.21875 0 " clip-rule="nonzero"/></clipPath></defs><g clip-path="url(#85c0d81236)"><path fill="#ffffff" d="M 933.125 691.890625 C 933.589844 693.015625 934.1875 694.195312 934.449219 694.523438 C 934.710938 694.851562 935.851562 697.605469 936.988281 700.652344 C 938.117188 703.695312 939.246094 706.566406 939.496094 707.035156 C 940.429688 708.792969 945.640625 726.640625 946.648438 731.523438 C 948.15625 738.863281 951.332031 747.628906 952.125 746.667969 C 953.207031 745.371094 954.417969 741.261719 954.417969 738.898438 C 954.421875 734.773438 952.148438 721.78125 950.441406 716.140625 C 948.941406 711.195312 948.53125 710.433594 946.582031 708.949219 C 945.246094 707.925781 942.175781 703.925781 938.628906 698.578125 C 935.453125 693.785156 932.71875 689.859375 932.5625 689.859375 C 932.402344 689.859375 932.65625 690.773438 933.125 691.890625 Z M 985.054688 731.84375 C 994.460938 737.816406 995.800781 737.746094 992.859375 731.425781 C 990.636719 726.652344 987.652344 723.546875 982.761719 720.914062 C 980.359375 719.621094 976.796875 717.144531 974.84375 715.402344 C 967.738281 709.089844 968.1875 709.28125 960.148438 709.089844 C 956.238281 708.992188 952.546875 708.855469 951.949219 708.792969 C 951.003906 708.691406 950.96875 708.773438 951.671875 709.425781 C 952.847656 710.519531 976.761719 726.578125 985.054688 731.84375 Z M 958.324219 690.964844 C 958.003906 690.964844 957.738281 691.214844 957.738281 691.515625 C 957.738281 691.824219 957.847656 692.078125 957.980469 692.078125 C 958.117188 692.078125 958.382812 691.824219 958.570312 691.515625 C 958.757812 691.214844 958.648438 690.964844 958.324219 690.964844 Z M 952.207031 159.335938 C 957.835938 162.058594 963.597656 164.902344 965.015625 165.652344 C 967.53125 166.988281 970.144531 167.425781 970.65625 166.597656 C 970.796875 166.371094 966.390625 163.339844 960.867188 159.863281 C 945.441406 150.152344 938.640625 145.570312 935.613281 142.847656 C 933.078125 140.570312 929.257812 134.414062 921 119.292969 C 920.066406 117.589844 919.707031 117.488281 918.320312 118.542969 C 917.785156 118.949219 917.351562 119.894531 917.351562 120.648438 C 917.351562 123.101562 925.714844 138.160156 931.53125 146.171875 C 934.113281 149.734375 939.617188 153.238281 952.207031 159.335938 Z M 974.171875 165.492188 C 980.625 170.230469 982.882812 170.933594 983.515625 168.394531 C 983.898438 166.871094 980.859375 159.839844 978.445312 156.675781 C 975.929688 153.378906 963.117188 144.054688 951.300781 136.921875 C 947.910156 134.875 944.125 132.335938 942.890625 131.277344 C 939.273438 128.183594 934.308594 120.597656 926.351562 106.019531 C 924.851562 103.277344 923.355469 101.183594 922.882812 101.183594 C 922.425781 101.183594 921.21875 101.691406 920.199219 102.308594 C 918.476562 103.363281 918.371094 103.585938 918.726562 105.488281 C 919.96875 112.101562 932.890625 136.714844 937.136719 140.550781 C 939.589844 142.765625 955.808594 153.589844 965.664062 159.582031 C 967.132812 160.476562 970.960938 163.136719 974.171875 165.492188 Z M 985.535156 157.054688 C 990.089844 157.054688 989.226562 152.515625 983.101562 144.253906 C 981.347656 141.894531 979.222656 139.535156 978.371094 139.011719 C 974.125 136.410156 972.46875 135.050781 966.859375 129.535156 C 963.515625 126.25 958.601562 122.089844 955.941406 120.289062 C 953.277344 118.492188 951.101562 116.832031 951.101562 116.601562 C 951.101562 115.648438 952.277344 115.570312 953.902344 116.410156 C 954.851562 116.902344 955.75 117.183594 955.898438 117.035156 C 956.042969 116.886719 953.382812 114.316406 949.980469 111.320312 C 943.816406 105.898438 943.789062 105.859375 940.582031 99.238281 C 938.8125 95.589844 936.828125 90.921875 936.164062 88.867188 C 935.011719 85.292969 934.894531 85.144531 933.484375 85.488281 C 932.675781 85.679688 930.949219 86.335938 929.652344 86.933594 C 925.976562 88.636719 925.144531 90.207031 925.488281 94.824219 C 925.734375 98.160156 926.25 99.636719 929.238281 105.601562 C 938.867188 124.847656 941.328125 127.996094 951.4375 134.058594 C 961.355469 140.007812 965.660156 142.980469 974.597656 150.058594 C 982.40625 156.242188 983.675781 157.054688 985.535156 157.054688 Z M 982.414062 132.554688 C 982.011719 130.539062 973.816406 117.976562 969.847656 113.300781 C 963.039062 105.277344 956.53125 94.171875 954.386719 86.925781 C 953.085938 82.535156 955.449219 83.074219 957.542969 87.640625 L 958.949219 90.714844 L 960.527344 88.339844 C 961.394531 87.03125 962.636719 85.277344 963.285156 84.441406 C 964.703125 82.617188 964.9375 82.726562 957.183594 81.667969 C 949.429688 80.601562 944.28125 80.535156 942.050781 81.46875 C 937.683594 83.292969 937.617188 88.738281 941.859375 97.125 C 944.28125 101.910156 945.113281 102.886719 956.480469 114.300781 C 963.105469 120.957031 970.789062 128.820312 973.554688 131.769531 C 977.847656 136.355469 978.835938 137.140625 980.324219 137.140625 C 981.722656 137.140625 982.132812 136.867188 982.414062 135.734375 C 982.609375 134.964844 982.609375 133.53125 982.414062 132.554688 Z M 969.683594 77.445312 C 970.960938 76.027344 973.5 73.773438 975.328125 72.445312 L 978.648438 70.023438 L 976.011719 68.710938 C 974.558594 67.988281 970.914062 65.679688 967.90625 63.582031 C 964.902344 61.480469 962.015625 59.746094 961.492188 59.71875 C 960.96875 59.703125 960.28125 60.171875 959.960938 60.773438 C 959.636719 61.371094 959.132812 63.136719 958.839844 64.691406 C 958.046875 68.878906 958.988281 71.871094 962.289062 75.648438 C 966.46875 80.425781 966.910156 80.535156 969.683594 77.445312 Z M 949.144531 303.398438 C 947.128906 280.160156 943.898438 247.386719 943.324219 244.335938 C 943.054688 242.894531 942.199219 231.070312 941.425781 218.058594 C 940.652344 205.046875 939.644531 189.324219 939.1875 183.117188 C 938.734375 176.910156 938.199219 168.132812 938.003906 163.613281 C 937.808594 159.097656 937.457031 155.398438 937.226562 155.398438 C 936.054688 155.398438 930.113281 149.054688 927.140625 144.636719 C 921.105469 135.65625 915.949219 126.855469 914.875 123.699219 C 913.609375 119.976562 914.105469 118.347656 917.015625 116.628906 L 918.910156 115.511719 L 917.542969 112.078125 C 916.789062 110.191406 916.039062 107.402344 915.875 105.878906 C 915.484375 102.289062 916.882812 100.339844 920.492188 99.429688 L 923 98.800781 L 922.621094 94.773438 C 922.210938 90.40625 922.542969 89.277344 925.003906 86.636719 C 926.527344 85.003906 932.507812 82.808594 934.304688 83.226562 C 935.023438 83.394531 935.789062 82.804688 936.875 81.21875 C 937.722656 79.984375 939.269531 78.617188 940.3125 78.179688 C 942.78125 77.144531 949.289062 77.164062 954.785156 78.210938 C 961.007812 79.40625 961.5 79.347656 959.46875 77.632812 C 958.550781 76.863281 957.128906 74.867188 956.3125 73.203125 C 954.988281 70.492188 954.859375 69.707031 955.085938 65.785156 C 955.378906 60.722656 956.761719 58.070312 959.894531 56.574219 C 961.605469 55.757812 961.933594 55.757812 963.585938 56.542969 C 964.582031 57.019531 967.925781 59.292969 971.011719 61.585938 C 974.101562 63.882812 977.667969 66.367188 978.941406 67.105469 L 981.253906 68.449219 L 985.125 67.144531 C 987.257812 66.425781 991.109375 65.574219 993.6875 65.246094 C 999.304688 64.542969 1020.183594 64.5 1025.238281 65.179688 C 1027.214844 65.441406 1033.691406 66.347656 1039.625 67.183594 C 1056.488281 69.558594 1074.910156 69.152344 1078.515625 66.3125 C 1080.917969 64.417969 1085.820312 52.902344 1086.976562 46.421875 C 1087.761719 42.027344 1088.007812 35.886719 1087.402344 35.886719 C 1087.203125 35.886719 1084.652344 36.65625 1081.730469 37.597656 C 1065.402344 42.855469 1047.179688 43.921875 1036.105469 40.273438 C 1030.105469 38.296875 1020.417969 33.253906 1017.820312 30.761719 C 1014.445312 27.527344 1014.1875 25.734375 1016.121094 18.921875 L 1017.640625 13.578125 L 1016.160156 12.5 C 1013.042969 10.226562 1011.113281 3.117188 1012.996094 0.839844 C 1014.054688 -0.4375 1016.300781 -0.242188 1018.691406 1.320312 C 1021.097656 2.898438 1026.140625 4.65625 1029.800781 5.195312 C 1032.742188 5.632812 1033.125 6.273438 1031.015625 7.234375 C 1029.167969 8.078125 1023.933594 7.058594 1019.707031 5.035156 C 1018.03125 4.230469 1016.4375 3.46875 1016.160156 3.339844 C 1015.503906 3.019531 1016.070312 6.402344 1017.09375 8.84375 C 1017.699219 10.289062 1018.6875 11.195312 1021.015625 12.40625 C 1024.023438 13.980469 1025.378906 15.84375 1023.027344 15.175781 C 1022.417969 15.003906 1021.421875 14.726562 1020.8125 14.554688 C 1019.933594 14.300781 1019.707031 14.5 1019.707031 15.527344 C 1019.707031 16.242188 1019.230469 18.542969 1018.648438 20.640625 C 1017.972656 23.074219 1017.753906 24.886719 1018.042969 25.644531 C 1019.535156 29.5625 1033.832031 37.007812 1043.730469 39.015625 C 1049.4375 40.171875 1061.621094 39.769531 1070.445312 38.136719 C 1081.464844 36.101562 1096.542969 30.921875 1111.140625 24.167969 C 1117.488281 21.230469 1120.078125 20.847656 1115.972656 23.449219 C 1113.464844 25.039062 1097.003906 32.394531 1093.15625 33.640625 L 1091.078125 34.3125 L 1091.070312 39.386719 C 1091.0625 42.183594 1090.691406 46.207031 1090.242188 48.339844 C 1089.460938 52.054688 1085.878906 60.117188 1083.277344 64.03125 L 1082.035156 65.894531 L 1083.929688 65.496094 C 1086.121094 65.027344 1094.527344 61.863281 1097.25 60.484375 C 1098.269531 59.964844 1100.140625 58.699219 1101.40625 57.671875 C 1104.074219 55.515625 1104.355469 55.4375 1104.355469 56.84375 C 1104.355469 58.46875 1099.65625 62.386719 1095.277344 64.417969 C 1083.347656 69.925781 1067.617188 72.9375 1054.5625 72.214844 C 1051.367188 72.03125 1041.40625 70.992188 1032.429688 69.886719 C 1017.277344 68.03125 1015.339844 67.910156 1005.320312 68.171875 C 998.519531 68.359375 993 68.796875 990.382812 69.355469 C 985.59375 70.390625 979.699219 73.015625 974.992188 76.207031 C 971.089844 78.859375 964.308594 86.507812 961.316406 91.632812 L 960.269531 93.433594 L 962.101562 97.164062 C 964.324219 101.691406 967.523438 106.496094 971.03125 110.582031 C 972.46875 112.253906 975.011719 115.878906 976.683594 118.636719 C 978.351562 121.390625 980.621094 125.007812 981.726562 126.671875 C 984.050781 130.175781 985.316406 135.394531 984.355469 137.511719 C 984.03125 138.21875 983.519531 138.796875 983.214844 138.796875 C 982.910156 138.796875 984.316406 141.324219 986.335938 144.40625 C 991.800781 152.75 992.75 156.398438 990.132812 159.019531 C 988.65625 160.492188 987.40625 160.6875 985.085938 159.808594 C 984.261719 159.496094 983.484375 159.34375 983.359375 159.472656 C 983.230469 159.597656 983.734375 161.164062 984.476562 162.945312 C 986.585938 168.003906 986.738281 169.34375 985.386719 171.0625 C 984.464844 172.230469 983.746094 172.546875 982.003906 172.546875 C 979.535156 172.546875 978.332031 172.027344 975.28125 169.636719 C 973.332031 168.109375 973.113281 168.058594 972.195312 168.886719 C 970.148438 170.738281 968.359375 170.167969 952.484375 162.585938 C 950.65625 161.714844 946.992188 160.003906 944.34375 158.789062 L 939.523438 156.574219 L 939.777344 158.058594 C 940.078125 159.804688 942.609375 189.808594 943.101562 197.445312 C 943.285156 200.335938 943.796875 206.1875 944.230469 210.445312 C 944.664062 214.710938 945.625 224.167969 946.371094 231.472656 C 947.113281 238.773438 948.113281 250.226562 948.59375 256.921875 C 949.386719 267.96875 950.792969 283.359375 953.851562 314.464844 C 955.839844 334.703125 956.027344 338.132812 956.148438 356.511719 C 956.292969 378.242188 956.816406 374.941406 948.605469 403.816406 C 944.003906 420.011719 943.621094 422.132812 939.460938 454.71875 C 936.222656 480.058594 933.554688 499.871094 926.484375 550.988281 C 925.078125 561.175781 923.445312 571.5625 922.308594 577.546875 C 920.332031 587.960938 919.554688 594.78125 919 606.59375 C 918.703125 612.984375 918.238281 621.449219 917.976562 625.40625 C 917.710938 629.359375 917.691406 634.714844 917.929688 637.300781 C 918.171875 639.886719 918.390625 648.117188 918.414062 655.585938 C 918.453125 669.054688 918.46875 669.199219 919.890625 672.050781 C 921.210938 674.699219 929.421875 684.003906 928.773438 682.117188 C 928.613281 681.660156 927.570312 679.207031 926.457031 676.671875 C 924.601562 672.464844 924.410156 670.441406 925.964844 671.488281 C 926.28125 671.707031 928.507812 675.113281 930.90625 679.070312 C 933.304688 683.027344 936.433594 688.011719 937.855469 690.144531 C 939.277344 692.277344 941.46875 696.066406 942.722656 698.554688 C 945.140625 703.367188 945.824219 703.96875 950.246094 705.160156 C 953.382812 706 972.117188 707.148438 980.976562 707.042969 C 990.054688 706.929688 999.789062 704.929688 999.789062 703.167969 C 999.789062 702.359375 997.117188 700.492188 994.949219 699.777344 C 993.378906 699.257812 991.773438 699.269531 987.519531 699.835938 C 983.347656 700.386719 981.417969 700.40625 979.179688 699.921875 C 977.582031 699.578125 973.660156 699.148438 970.464844 698.976562 C 962.238281 698.519531 960.402344 697.933594 956.769531 694.621094 C 953.78125 691.890625 953.59375 691.808594 950.804688 691.980469 C 948.222656 692.148438 947.714844 691.984375 945.898438 690.394531 C 944.789062 689.414062 943.050781 687.214844 942.039062 685.5 C 936.738281 676.527344 932.035156 668.988281 931.113281 667.972656 C 929.75 666.46875 929.804688 666.074219 931.363281 666.074219 C 932.070312 666.074219 933.164062 666.628906 933.789062 667.3125 C 934.738281 668.355469 942.25 679.53125 946.398438 686.085938 C 947.007812 687.050781 948.171875 688.324219 948.992188 688.929688 C 950.414062 689.976562 950.761719 689.996094 956.460938 689.320312 C 967.460938 688.015625 970.113281 687.386719 973.023438 685.386719 C 974.507812 684.363281 977.960938 682.238281 980.699219 680.664062 C 983.4375 679.082031 985.679688 677.464844 985.679688 677.066406 C 985.679688 675.675781 983.0625 674.859375 979.425781 675.109375 C 976.664062 675.300781 975.289062 675.757812 972.785156 677.304688 C 970.703125 678.589844 968.398438 679.457031 966.03125 679.855469 C 964.058594 680.191406 960.386719 680.878906 957.871094 681.375 C 955.359375 681.878906 953.117188 682.101562 952.894531 681.878906 C 952.511719 681.5 953.910156 680.164062 955.125 679.757812 C 955.425781 679.65625 954.523438 677.59375 953.125 675.171875 C 951.308594 672.039062 950.027344 668.761719 948.667969 663.785156 C 945.867188 653.523438 945.800781 652.667969 947.410156 647.816406 C 948.164062 645.527344 949.09375 641.351562 949.46875 638.523438 C 949.902344 635.285156 950.382812 633.460938 950.765625 633.589844 C 952.339844 634.109375 951.457031 645.59375 949.492188 650.183594 L 948.382812 652.765625 L 949.765625 655.785156 C 950.527344 657.449219 951.53125 660.871094 952 663.40625 C 952.492188 666.066406 953.472656 669.058594 954.3125 670.5 C 955.113281 671.867188 956.335938 674.183594 957.027344 675.65625 C 957.929688 677.582031 958.550781 678.277344 959.253906 678.140625 C 960.121094 677.972656 960.238281 677.152344 960.308594 670.765625 C 960.402344 662.6875 961.304688 651.121094 962.421875 643.664062 C 964.171875 632 963.917969 628.785156 960.492188 619.179688 C 957.21875 610.007812 952.234375 594.96875 951.601562 592.355469 C 951.25 590.917969 950.746094 589.875 950.476562 590.035156 C 949.765625 590.476562 949.882812 594.40625 950.859375 602.394531 C 951.335938 606.296875 951.636719 610.582031 951.53125 611.914062 L 951.339844 614.339844 L 950.625 612.679688 C 949.894531 610.996094 948.894531 605.25 947.703125 595.933594 C 946.902344 589.683594 946.066406 592.726562 961.644531 545.457031 C 967.714844 527.046875 973.429688 509.121094 974.347656 505.621094 C 977.714844 492.761719 981.480469 476.816406 983.949219 464.953125 C 985.339844 458.261719 987.824219 447.925781 989.472656 441.996094 C 991.121094 436.058594 993.210938 428.214844 994.121094 424.566406 C 995.027344 420.914062 996.9375 413.820312 998.359375 408.796875 C 1001.09375 399.148438 1004.675781 382.167969 1006.121094 372.003906 C 1007.265625 363.941406 1007.410156 351.339844 1006.558594 334.105469 C 1004.890625 300.441406 1004.773438 295.621094 1005.332031 283.480469 C 1005.882812 271.453125 1005.828125 269.085938 1004.179688 235.898438 C 1003.40625 220.296875 1003.820312 195.019531 1004.949219 189.101562 C 1006.058594 183.300781 1007.109375 181.402344 1009.21875 181.402344 C 1010.453125 181.402344 1011.039062 181.757812 1011.507812 182.785156 C 1012.257812 184.425781 1011.777344 185.160156 1010.597656 184.183594 C 1009.582031 183.34375 1009.550781 183.417969 1008.324219 189.148438 C 1006.929688 195.683594 1006.789062 207.964844 1007.808594 234.515625 C 1008.328125 248.058594 1008.957031 274.570312 1009.207031 293.441406 C 1009.457031 312.304688 1009.949219 331.972656 1010.308594 337.148438 C 1010.667969 342.449219 1010.832031 352.105469 1010.675781 359.28125 C 1010.421875 371.039062 1010.253906 372.742188 1008.449219 381.6875 C 1007.375 387.011719 1005.996094 392.988281 1005.382812 394.964844 C 1000.292969 411.4375 986.054688 467.089844 984.015625 478.507812 C 980.535156 497.996094 971.96875 527.449219 963.832031 547.945312 C 962.019531 552.511719 958.632812 562.378906 956.304688 569.878906 L 952.078125 583.515625 L 953.601562 588.136719 C 954.441406 590.679688 957.363281 598.613281 960.09375 605.765625 C 966.574219 622.726562 967.871094 627.683594 967.527344 634.257812 C 967.386719 636.996094 966.371094 643.253906 965.277344 648.160156 C 963.304688 657.015625 962.179688 666.167969 962.167969 673.472656 L 962.164062 677.28125 L 965.449219 676.90625 C 967.558594 676.671875 970.058594 675.847656 972.40625 674.621094 C 976.792969 672.335938 980.886719 672.0625 984.71875 673.804688 C 989.425781 675.941406 988.710938 678.164062 981.953125 682.421875 C 979.132812 684.203125 975.519531 686.628906 973.925781 687.820312 C 971.296875 689.785156 970.570312 690.042969 966.179688 690.511719 C 961.4375 691.019531 959.617188 691.894531 960.128906 693.429688 C 960.835938 695.550781 972.613281 697.203125 987.652344 697.285156 C 996.03125 697.328125 996.320312 697.371094 998.515625 698.820312 C 1001.050781 700.492188 1003.078125 703.058594 1002.703125 704.117188 C 1002.285156 705.300781 999.617188 706.367188 993.34375 707.855469 C 988.582031 708.980469 985.710938 709.300781 979.460938 709.390625 L 971.578125 709.5 L 974.683594 712.269531 C 976.390625 713.792969 980.433594 716.550781 983.667969 718.40625 C 988.09375 720.945312 990.058594 722.441406 991.589844 724.453125 C 993.660156 727.175781 995.804688 732.859375 996.054688 736.296875 C 996.171875 737.914062 995.984375 738.246094 994.808594 738.554688 C 992.707031 739.09375 990.75 738.335938 985.785156 735.070312 C 983.292969 733.421875 977.144531 729.449219 972.125 726.238281 C 967.105469 723.027344 960.546875 718.753906 957.550781 716.753906 C 954.554688 714.742188 952.015625 713.097656 951.90625 713.097656 C 951.796875 713.097656 952.070312 714.277344 952.519531 715.722656 C 954.027344 720.585938 956.714844 733.230469 957.023438 736.929688 C 957.433594 741.800781 955.769531 747.050781 953.027344 749.542969 C 951.984375 750.496094 951.335938 749.773438 951.101562 749.613281 C 949.441406 748.511719 947.785156 746.46875 946.621094 740.746094 C 945.976562 737.558594 945.214844 734.523438 944.933594 733.988281 C 944.652344 733.457031 943.839844 730.089844 943.125 726.507812 C 942.410156 722.921875 940.761719 717.257812 939.457031 713.921875 C 938.15625 710.574219 935.261719 703.207031 933.03125 697.535156 C 930.796875 691.871094 928.96875 687.007812 928.96875 686.734375 C 928.96875 686.464844 927.082031 684.378906 924.78125 682.101562 C 922.472656 679.828125 919.609375 676.328125 918.40625 674.324219 C 916.386719 670.949219 916.183594 670.214844 915.617188 664.363281 C 914.136719 649.046875 916.347656 592.394531 918.722656 584.753906 C 918.867188 584.289062 919.726562 578.929688 920.636719 572.84375 C 923.5 553.621094 924.574219 546.898438 925.109375 544.902344 C 925.398438 543.839844 926.019531 539.605469 926.492188 535.496094 C 926.96875 531.390625 927.703125 526.160156 928.132812 523.878906 C 928.5625 521.597656 929.175781 516.492188 929.496094 512.539062 C 930.816406 496.28125 931.785156 485.761719 932.289062 482.105469 C 932.585938 479.976562 933.339844 473.128906 933.964844 466.890625 C 937.015625 436.351562 939.449219 422.898438 945.003906 405.753906 C 947.949219 396.675781 951.894531 380.878906 952.75 374.769531 C 953.910156 366.46875 953.222656 347.742188 950.824219 322.488281 C 950.664062 320.8125 949.910156 312.222656 949.144531 303.398438 " fill-opacity="1" fill-rule="nonzero"/></g><path fill="#ffffff" d="M 989.355469 393.492188 C 986.304688 389.660156 984.929688 388.542969 984.066406 389.179688 C 980.644531 391.710938 978.675781 392.847656 978.339844 392.480469 C 978.113281 392.242188 978.246094 391.933594 978.628906 391.800781 C 979.011719 391.660156 980.34375 390.699219 981.585938 389.664062 C 984.003906 387.644531 984.570312 387.480469 986.109375 388.378906 C 987.503906 389.191406 991.488281 394.347656 991.488281 395.34375 C 991.488281 395.796875 990.527344 394.964844 989.355469 393.492188 " fill-opacity="1" fill-rule="nonzero"/></svg>