<svg xmlns="http://www.w3.org/2000/svg" xmlns:xlink="http://www.w3.org/1999/xlink" width="2000" zoomAndPan="magnify" viewBox="0 0 1500 749.999995" height="1000" preserveAspectRatio="xMidYMid meet" version="1.0"><defs><clipPath id="8a04fc99fd"><path d="M 0 0 L 184.421875 0 L 184.421875 746.25 L 0 746.25 Z M 0 0 " clip-rule="nonzero"/></clipPath></defs><g clip-path="url(#8a04fc99fd)"><path fill="#edb89e" d="M 148.707031 430.816406 C 134.191406 445.304688 126.320312 452.363281 116.40625 459.773438 C 100.5 471.664062 97.902344 473.296875 97.902344 471.421875 C 97.902344 469.804688 129.113281 438.492188 133.519531 435.691406 C 135.234375 434.601562 137.390625 432.863281 138.3125 431.832031 C 139.863281 430.097656 139.878906 429.90625 138.488281 429.375 C 136.570312 428.636719 130.433594 432.859375 119.085938 442.730469 C 114.335938 446.867188 109.726562 450.457031 108.847656 450.703125 C 107.96875 450.953125 104.246094 451.40625 100.574219 451.707031 C 90.847656 452.507812 77.339844 453.953125 74.632812 454.484375 C 72.621094 454.878906 72.148438 454.535156 71.289062 452.078125 C 70.738281 450.507812 70.425781 449.082031 70.589844 448.917969 C 70.753906 448.753906 76.667969 447.625 83.730469 446.40625 C 97.652344 444.011719 105.511719 441.972656 106.40625 440.527344 C 106.714844 440.023438 110.832031 436.535156 115.554688 432.777344 C 120.273438 429.019531 125.289062 424.636719 126.691406 423.035156 C 128.101562 421.429688 129.8125 420.121094 130.496094 420.121094 C 131.179688 420.121094 131.738281 419.707031 131.738281 419.203125 C 131.738281 416.574219 127.789062 417.824219 113.664062 424.914062 C 102.714844 430.410156 96.824219 432.84375 93.003906 433.453125 C 90.066406 433.921875 83.457031 434.953125 78.3125 435.738281 C 73.171875 436.527344 68.339844 437.34375 67.574219 437.554688 C 66.566406 437.835938 65.796875 436.710938 64.746094 433.429688 C 63.6875 430.117188 63.585938 428.839844 64.355469 428.628906 C 64.929688 428.464844 68.40625 427.652344 72.078125 426.820312 C 85.253906 423.84375 94.773438 420.210938 104.175781 414.582031 C 109.289062 411.515625 116.453125 408.007812 120.089844 406.773438 C 123.730469 405.542969 126.871094 404.039062 127.074219 403.425781 C 127.769531 401.28125 122.171875 402.253906 106.804688 406.941406 C 102.152344 408.359375 95.140625 409.917969 91.222656 410.402344 C 87.304688 410.886719 83.5 411.460938 82.765625 411.679688 C 82.03125 411.898438 77.21875 412.671875 72.078125 413.398438 C 66.9375 414.125 61.726562 414.933594 60.503906 415.195312 C 58.5625 415.617188 58.015625 415.148438 56.246094 411.546875 C 55.128906 409.273438 54.328125 407.351562 54.464844 407.273438 C 55.035156 406.953125 78.027344 400.75 82.765625 399.636719 C 90.546875 397.808594 104.929688 393.054688 109.03125 390.957031 C 111.730469 389.574219 126.285156 377.421875 129.4375 373.910156 C 130.46875 372.765625 131.765625 372.207031 132.703125 372.507812 C 134.839844 373.183594 135.726562 371.433594 133.769531 370.398438 C 132.898438 369.941406 126.894531 369.347656 120.429688 369.082031 C 111.546875 368.71875 107.394531 368.136719 103.441406 366.695312 C 97.460938 364.511719 89.601562 358.941406 89.144531 356.558594 C 88.855469 355.054688 89.375 354.996094 96.707031 355.679688 C 101.039062 356.085938 105.980469 356.371094 107.699219 356.316406 C 109.410156 356.261719 116.421875 355.917969 123.28125 355.546875 C 136.148438 354.859375 136.015625 354.84375 158.191406 359.199219 C 161.722656 359.894531 165.445312 360.460938 166.464844 360.460938 C 169.503906 360.460938 174.941406 363.710938 176.078125 366.203125 C 176.664062 367.484375 177.511719 371.824219 177.972656 375.851562 C 178.429688 379.875 179.191406 384.191406 179.671875 385.445312 C 182.609375 393.15625 174.417969 405.15625 148.707031 430.816406 Z M 126.027344 458.960938 C 121.851562 469.742188 119.738281 491.886719 121.054688 511.125 C 122.410156 530.984375 123.679688 558.984375 123.703125 569.582031 L 123.726562 578.796875 L 116.296875 563.792969 C 112.207031 555.539062 107.617188 545.582031 106.097656 541.664062 C 104.574219 537.746094 99.871094 525.726562 95.640625 514.953125 C 91.410156 504.175781 86.226562 490.554688 84.125 484.675781 C 82.019531 478.800781 78.847656 470.507812 77.078125 466.25 C 75.308594 461.992188 73.859375 458.371094 73.859375 458.195312 C 73.859375 458.027344 76.363281 457.78125 79.425781 457.652344 C 82.484375 457.527344 89.800781 456.914062 95.675781 456.292969 C 101.550781 455.675781 106.5625 455.339844 106.804688 455.550781 C 107.050781 455.761719 106.300781 456.570312 105.140625 457.351562 C 101.96875 459.480469 94.339844 469.976562 94.339844 472.207031 C 94.339844 473.28125 95.078125 474.832031 95.984375 475.648438 C 97.792969 477.285156 97.136719 477.65625 118.4375 462.964844 C 123.8125 459.257812 126.449219 457.867188 126.027344 458.960938 Z M 68.226562 444.03125 C 67.945312 442.953125 67.882812 441.796875 68.089844 441.460938 C 68.296875 441.125 71.101562 440.582031 74.324219 440.25 C 88.136719 438.835938 103.382812 434.492188 112.148438 429.472656 C 114.964844 427.859375 115.5625 427.804688 113.898438 429.3125 C 113.179688 429.964844 109.84375 432.609375 106.484375 435.195312 L 100.378906 439.894531 L 86.332031 442.378906 C 78.609375 443.746094 71.492188 445.121094 70.515625 445.429688 C 69.175781 445.855469 68.613281 445.511719 68.226562 444.03125 Z M 60.816406 422.171875 C 60.097656 420.449219 59.679688 418.867188 59.882812 418.664062 C 60.089844 418.457031 64.914062 417.710938 70.597656 417.003906 C 81.796875 415.613281 91.1875 414.144531 96.121094 413.007812 C 100.28125 412.050781 100.574219 412.023438 100.574219 412.609375 C 100.574219 413.429688 88.074219 418.90625 82.765625 420.414062 C 80.070312 421.183594 74.328125 422.59375 69.996094 423.554688 L 62.128906 425.304688 Z M 51.445312 398.375 C 50.167969 394.910156 47.804688 387.546875 46.199219 382.015625 C 44.59375 376.488281 42.816406 371.328125 42.25 370.554688 C 41.449219 369.453125 41.871094 366.191406 44.179688 355.675781 C 50.84375 325.363281 55.96875 309.550781 73.730469 264.535156 C 79.921875 248.851562 87.183594 228 93.589844 207.523438 L 103.691406 175.234375 L 104.820312 181.699219 C 105.4375 185.253906 107 192.515625 108.285156 197.839844 C 111.316406 210.378906 116.316406 220.195312 132.128906 244.652344 C 147.582031 268.558594 149.933594 273.410156 149.851562 281.234375 C 149.78125 287.714844 148.058594 291.964844 142.449219 299.484375 C 138.464844 304.820312 131.640625 308.515625 123.171875 309.917969 C 115.597656 311.171875 115.503906 312.433594 122.902344 313.65625 L 126.085938 314.179688 L 127.578125 325.570312 C 128.394531 331.832031 129.066406 339.777344 129.066406 343.222656 L 129.066406 349.492188 L 125.730469 350.496094 C 118.460938 352.683594 109.351562 353.488281 98.773438 352.882812 C 87.183594 352.21875 85.433594 352.691406 85.433594 356.492188 C 85.433594 361.109375 93.902344 367.300781 103.714844 369.851562 C 106.449219 370.566406 112.570312 371.582031 117.316406 372.113281 C 122.066406 372.640625 126.035156 373.160156 126.136719 373.261719 C 126.238281 373.363281 122.386719 376.6875 117.582031 380.648438 C 108.476562 388.148438 104.847656 389.820312 84.992188 395.652344 C 82.054688 396.515625 78.644531 397.53125 77.421875 397.910156 C 76.195312 398.289062 72.390625 399.277344 68.964844 400.101562 C 65.535156 400.925781 61.925781 401.902344 60.949219 402.269531 C 59.972656 402.636719 57.957031 403.328125 56.476562 403.804688 L 53.78125 404.675781 Z M 184.40625 386.089844 C 184.238281 377.332031 182.980469 368.402344 181.453125 365.191406 C 180.128906 362.394531 172.65625 358.296875 167.425781 357.496094 C 156.480469 355.816406 139.449219 352.34375 136.851562 351.257812 L 133.785156 349.976562 L 133.179688 338.96875 C 132.847656 332.914062 132.335938 324.496094 132.039062 320.265625 L 131.5 312.574219 L 136.902344 309.136719 C 142.949219 305.289062 150.199219 296.882812 152.621094 290.90625 C 155.386719 284.089844 155.417969 277.222656 152.710938 270.082031 C 149.535156 261.679688 146.859375 257.085938 133.042969 236.246094 C 119.09375 215.214844 116.726562 210.734375 113.140625 198.625 C 107.648438 180.078125 106.484375 168.070312 109.015625 156.105469 C 111.652344 143.652344 110.386719 135.929688 103.308594 121.246094 C 98.03125 110.292969 93.726562 105.179688 89.140625 104.40625 C 82.179688 103.238281 82.75 105.160156 83.058594 83.90625 C 83.226562 72.128906 83.691406 64.445312 84.265625 63.867188 C 85.261719 62.871094 101.859375 55.9375 108.632812 53.6875 C 111.167969 52.847656 114.234375 50.769531 116.820312 48.125 C 124.003906 40.796875 124.441406 36.621094 119.394531 23.429688 C 116.421875 15.648438 116.140625 14.300781 117.1875 12.765625 C 118.671875 10.589844 118.761719 2.347656 117.3125 0.90625 C 115.816406 -0.597656 114.945312 -0.375 110.152344 2.707031 C 107.828125 4.203125 103.519531 6.082031 100.574219 6.886719 C 96.601562 7.976562 93.386719 9.800781 88.101562 13.972656 C 81.910156 18.863281 79.757812 21.207031 81.457031 21.207031 C 82.46875 21.207031 90.480469 16.78125 93.3125 14.660156 C 94.953125 13.429688 97.957031 12.148438 99.992188 11.8125 C 104.292969 11.09375 108.207031 9.289062 111.035156 6.699219 L 113.039062 4.867188 L 113.039062 8.195312 C 113.039062 10.425781 112.261719 12.546875 110.691406 14.609375 C 108.1875 17.886719 108.304688 19.28125 110.957031 17.796875 C 112.378906 16.996094 112.75 17.496094 114.058594 21.941406 C 114.878906 24.71875 116.253906 28.808594 117.109375 31.027344 C 118.03125 33.40625 118.441406 35.988281 118.105469 37.320312 C 117.367188 40.269531 110.8125 46.726562 107.8125 47.460938 C 106.527344 47.78125 101.464844 49.796875 96.566406 51.945312 C 79.4375 59.449219 65.914062 64.8125 61.746094 65.746094 C 59.433594 66.265625 54.691406 66.722656 51.207031 66.761719 C 45.644531 66.824219 44.109375 66.449219 38.660156 63.707031 C 35.246094 61.976562 28.046875 57.324219 22.660156 53.371094 C 17.273438 49.410156 12.265625 46.175781 11.527344 46.179688 C 10.027344 46.195312 10.140625 46.296875 24.234375 57.933594 C 29.421875 62.222656 35.765625 67.027344 38.332031 68.621094 C 42.90625 71.457031 43.1875 71.511719 52.863281 71.394531 C 62.367188 71.273438 66.460938 70.390625 76.53125 66.253906 C 77.6875 65.777344 77.867188 67.71875 77.867188 80.628906 C 77.867188 93.164062 78.117188 96.011719 79.425781 98.40625 C 82.460938 103.960938 82.597656 103.945312 58.359375 100.757812 C 49.652344 99.613281 46.332031 99.546875 39.773438 100.390625 C 30.613281 101.566406 29.035156 102.265625 18.523438 109.804688 C 14.289062 112.84375 7.757812 117.011719 4.007812 119.070312 C -2.328125 122.546875 -4.59375 124.695312 -3.292969 125.996094 C -2.363281 126.929688 12.265625 119.886719 20.609375 114.492188 C 34.476562 105.523438 34.523438 105.507812 47.148438 105.421875 C 62.792969 105.320312 87.671875 107.308594 90.765625 108.90625 C 93.609375 110.378906 102.050781 125.941406 104.492188 134.226562 C 107.433594 144.214844 106.609375 149.582031 97.90625 177.03125 C 95.035156 186.089844 89.601562 203.722656 85.832031 216.210938 C 82.066406 228.699219 77.003906 244.125 74.582031 250.492188 C 62.53125 282.171875 58.925781 292.097656 52.90625 310.152344 C 49.320312 320.925781 45.324219 334.75 44.035156 340.871094 C 42.746094 346.992188 40.535156 355.808594 39.117188 360.460938 C 35.121094 373.609375 31.769531 387.234375 32.378906 387.839844 C 33.300781 388.761719 34.386719 386.972656 36.015625 381.832031 C 38.691406 373.398438 37.445312 371.386719 49.535156 403.648438 C 53.203125 413.441406 58.792969 429.03125 61.960938 438.289062 C 65.125 447.546875 69.542969 459.566406 71.789062 465 C 74.03125 470.4375 77.574219 479.691406 79.664062 485.570312 C 87.503906 507.617188 105.125 549.460938 113.605469 566.1875 C 123.375 585.445312 132.628906 607.175781 132.628906 610.859375 C 132.628906 612.175781 134.519531 622.191406 136.824219 633.113281 C 141.34375 654.5 141.277344 653.800781 140.273438 670.375 C 139.757812 678.808594 139.214844 682.039062 138.050781 683.589844 L 136.503906 685.632812 L 134.875 683.148438 C 133.644531 681.273438 133.070312 677.917969 132.527344 669.488281 C 131.929688 660.1875 131.371094 657.265625 129.214844 652.082031 C 126.757812 646.183594 126.691406 645.714844 128.023438 643.414062 C 128.796875 642.078125 130.351562 639.992188 131.472656 638.78125 C 133.96875 636.089844 134.015625 635.609375 131.777344 635.609375 C 129.449219 635.609375 124.261719 642.53125 121.9375 648.742188 C 119.519531 655.199219 116.984375 670.347656 115.714844 685.917969 C 115.714844 685.917969 115.507812 695.363281 114.699219 698.378906 C 113.832031 701.601562 108.96875 710.425781 108.96875 710.425781 C 105.824219 717.046875 103.242188 722.761719 103.242188 723.109375 C 103.242188 723.457031 101.988281 726.554688 100.453125 729.984375 C 97.519531 736.546875 95.023438 738.183594 94.023438 734.1875 C 93.460938 731.957031 94.261719 728.632812 99.222656 712.632812 C 102.09375 703.351562 102.59375 700.417969 103.007812 690.355469 C 103.304688 683.082031 103.097656 676.96875 102.449219 673.949219 C 101.742188 670.660156 101.707031 668.84375 102.332031 668.21875 C 103.972656 666.574219 103.359375 664.851562 101.242188 665.148438 C 97.980469 665.613281 94.855469 672.933594 91.234375 688.585938 C 89.421875 696.425781 87.339844 705.03125 86.605469 707.714844 C 85.035156 713.433594 71.398438 743.496094 69.953125 744.433594 C 69.40625 744.777344 68.425781 744.53125 67.769531 743.875 C 66.105469 742.207031 69.167969 727.097656 74.277344 711.746094 C 78.613281 698.714844 79.503906 695.246094 81.921875 681.933594 C 84.605469 667.171875 84.15625 662.765625 80.019531 663.355469 C 76.957031 663.796875 70.992188 673.988281 59.054688 699.175781 C 49.128906 720.132812 44.402344 727.605469 42.359375 725.5625 C 40.628906 723.832031 43.457031 714.210938 51.144531 695.664062 C 62.960938 667.167969 65.84375 659.230469 65.84375 655.25 C 65.84375 649.863281 65.320312 650.035156 53.660156 659.203125 C 45.785156 665.394531 38.109375 672 29.09375 680.339844 C 22.949219 686.023438 19.035156 689.027344 18.1875 688.703125 C 15.390625 687.628906 16.90625 685.242188 29.203125 671.316406 C 55.863281 641.132812 54.273438 643.722656 68.925781 606.636719 C 74.140625 593.429688 79.042969 582.140625 79.816406 581.546875 C 83.21875 578.945312 78.417969 567.074219 64.957031 544.78125 C 60.371094 537.191406 53.894531 526.898438 50.566406 521.910156 C 39.140625 504.796875 21.710938 475.574219 11.855469 457.019531 C 9.761719 453.070312 5.472656 443.855469 2.328125 436.539062 C -0.816406 429.222656 -6.625 416.375 -10.578125 407.992188 C -14.539062 399.605469 -18.246094 390.859375 -18.824219 388.5625 C -20.214844 383.054688 -19.378906 375.710938 -16.15625 365.046875 C -13.191406 355.238281 -5.832031 323.386719 -0.0820312 295.457031 C 1.382812 288.359375 4.199219 276.738281 6.183594 269.636719 C 8.164062 262.535156 11.816406 248.511719 14.300781 238.472656 C 16.78125 228.433594 19.980469 216.042969 21.40625 210.9375 C 24.847656 198.605469 24.84375 193.769531 21.390625 190.316406 C 18.878906 187.804688 14.203125 186.691406 14.203125 188.605469 C 14.203125 189.097656 14.820312 189.496094 15.574219 189.496094 C 16.332031 189.496094 17.9375 190.480469 19.136719 191.683594 C 22.109375 194.652344 21.960938 197.828125 18.261719 210.5625 C 16.578125 216.363281 14.1875 225.394531 12.949219 230.636719 C 11.710938 235.875 8.074219 249.476562 4.867188 260.867188 C 1.664062 272.253906 -2.171875 287.601562 -3.65625 294.972656 C -6.964844 311.382812 -9.035156 319.691406 -12.976562 332.449219 C -14.652344 337.855469 -16.902344 346.070312 -17.976562 350.703125 L -19.9375 359.125 L -25.433594 337.3125 C -28.457031 325.3125 -32.613281 309.484375 -34.667969 302.140625 C -38.316406 289.105469 -41.242188 275.359375 -45.953125 249.15625 C -49.257812 230.753906 -50.4375 207.007812 -49.117188 185.492188 C -47.867188 165.164062 -46.511719 158.144531 -42.429688 150.898438 C -38.773438 144.410156 -29.746094 133.070312 -22.941406 126.417969 L -18.078125 121.660156 L -20.160156 130.867188 C -21.304688 135.933594 -22.859375 143.886719 -23.617188 148.539062 C -24.375 153.191406 -25.179688 158.097656 -25.40625 159.445312 C -25.636719 160.792969 -25.464844 161.894531 -25.027344 161.894531 C -24.054688 161.894531 -22.765625 157.925781 -21.414062 150.761719 C -20.855469 147.824219 -18.050781 136.003906 -15.175781 124.492188 C -12.300781 112.988281 -9.523438 100.175781 -9.003906 96.023438 C -7.984375 87.855469 -7.726562 69.414062 -8.601562 67.132812 C -9.734375 64.1875 -10.730469 65.921875 -10.734375 70.847656 C -10.742188 83.09375 -13.808594 106.890625 -16.167969 112.988281 C -16.652344 114.25 -21.226562 119.398438 -26.328125 124.425781 C -41.953125 139.824219 -48.859375 150.144531 -51.257812 161.671875 C -54.863281 179.007812 -54.675781 224.417969 -50.914062 244.703125 C -49.957031 249.847656 -48.308594 259.261719 -47.242188 265.628906 C -45.015625 278.921875 -41.011719 295.089844 -35.261719 314.015625 C -33.054688 321.277344 -30.664062 329.988281 -29.945312 333.375 C -29.230469 336.765625 -27.03125 345.132812 -25.058594 351.972656 L -21.476562 364.40625 L -23.304688 371.5625 C -26.582031 384.382812 -25.128906 390.417969 -12.667969 415.742188 L -4.644531 432.050781 L -8.265625 438.773438 C -18.566406 457.917969 -23.28125 465.480469 -29.882812 473.449219 C -39.203125 484.703125 -43.257812 491.199219 -51.6875 508.375 C -64.058594 533.582031 -66.304688 543.972656 -66.296875 575.949219 C -66.292969 591.566406 -65.863281 600.832031 -64.785156 608.5625 C -63.152344 620.246094 -60.207031 631.152344 -58.683594 631.152344 C -58.144531 631.152344 -57.945312 630.285156 -58.222656 629.152344 C -60.980469 617.878906 -61.929688 605.351562 -61.921875 580.398438 C -61.910156 551.632812 -61.285156 546.226562 -56.09375 530.121094 C -51.277344 515.171875 -38.230469 490.257812 -30.097656 480.488281 C -21.570312 470.242188 -12.09375 456.109375 -7.628906 446.996094 C -5.191406 442.007812 -2.96875 437.929688 -2.691406 437.929688 C -2.417969 437.929688 0.0625 442.636719 2.824219 448.390625 C 5.582031 454.148438 9.824219 462.257812 12.253906 466.425781 C 14.679688 470.585938 22.175781 483.609375 28.910156 495.359375 C 35.644531 507.117188 44.449219 521.542969 48.472656 527.417969 C 56.871094 539.683594 71.058594 563.65625 74.792969 571.894531 L 77.332031 577.496094 L 72.835938 588.074219 C 70.359375 593.894531 66.027344 604.664062 63.207031 612.007812 C 53.644531 636.910156 51.96875 639.722656 33.835938 661.316406 C 13.808594 685.175781 13.117188 686.230469 15.046875 689.839844 C 17.152344 693.777344 20.597656 691.695312 38.214844 675.832031 C 43.339844 671.210938 49.550781 665.898438 52.015625 664.019531 C 54.480469 662.140625 58.007812 659.339844 59.859375 657.792969 L 63.222656 654.984375 L 61.097656 660.65625 C 59.929688 663.777344 55.125 675.855469 50.414062 687.511719 C 38.171875 717.796875 36.550781 723.722656 39.640625 726.8125 C 40.410156 727.578125 41.96875 728.210938 43.097656 728.210938 C 47.300781 728.210938 50.710938 722.949219 63.851562 696.171875 C 70.933594 681.730469 77.488281 668.957031 78.414062 667.777344 L 80.09375 665.636719 L 80.09375 670.894531 C 80.09375 673.78125 79.058594 681.144531 77.800781 687.261719 C 75.589844 697.984375 73.976562 703.722656 68.46875 720.425781 C 67.058594 724.710938 65.265625 731.605469 64.492188 735.742188 C 63.183594 742.710938 63.191406 743.4375 64.566406 745.539062 C 66.308594 748.191406 69.3125 748.484375 71.902344 746.242188 C 73.65625 744.726562 82.140625 727.105469 87.292969 714.269531 C 88.703125 710.773438 91.875 700.378906 94.339844 691.179688 C 96.800781 681.988281 98.972656 674.308594 99.164062 674.117188 C 99.351562 673.929688 99.796875 677.625 100.148438 682.335938 C 100.859375 691.796875 100.332031 697.691406 98.257812 703.460938 C 95.453125 711.28125 90.777344 729.511719 90.789062 732.59375 C 90.808594 736.316406 91.367188 737.347656 94.179688 738.824219 C 95.871094 739.71875 96.628906 739.660156 98.386719 738.507812 C 100.921875 736.847656 101.917969 735.050781 108.839844 719.753906 C 117.34375 700.933594 117.761719 699.285156 121.53125 669.445312 C 123.054688 657.390625 124.453125 650.742188 125.46875 650.742188 C 126.71875 650.742188 128.230469 657.886719 129.097656 667.84375 C 129.582031 673.378906 130.179688 679.15625 130.433594 680.6875 C 131.355469 686.308594 137.796875 690.238281 140.589844 686.867188 C 141.167969 686.171875 142.246094 679.558594 142.980469 672.167969 C 144.449219 657.351562 144.613281 658.917969 137.589844 620.46875 C 134.515625 603.652344 134.011719 601.878906 129.398438 591.820312 L 125.300781 582.890625 L 125.753906 536.902344 C 126.214844 489.488281 126.648438 482.625 130.417969 462.863281 L 132.539062 451.730469 L 145.769531 438.820312 C 164.164062 420.875 178.871094 404.070312 182.621094 396.714844 C 184.140625 393.738281 184.507812 391.542969 184.40625 386.089844 " fill-opacity="1" fill-rule="nonzero"/></g></svg>