<svg xmlns="http://www.w3.org/2000/svg" xmlns:xlink="http://www.w3.org/1999/xlink" width="2000" zoomAndPan="magnify" viewBox="0 0 1500 749.999995" height="1000" preserveAspectRatio="xMidYMid meet" version="1.0"><defs><clipPath id="cc6c1b54b5"><path d="M 1296.441406 0 L 1500 0 L 1500 750 L 1296.441406 750 Z M 1296.441406 0 " clip-rule="nonzero"/></clipPath></defs><g clip-path="url(#cc6c1b54b5)"><path fill="#ffffff" d="M 1315.347656 691.890625 C 1315.816406 693.015625 1316.410156 694.195312 1316.675781 694.523438 C 1316.9375 694.851562 1318.078125 697.605469 1319.210938 700.652344 C 1320.34375 703.695312 1321.472656 706.566406 1321.71875 707.035156 C 1322.652344 708.792969 1327.867188 726.640625 1328.871094 731.523438 C 1330.382812 738.863281 1333.554688 747.628906 1334.351562 746.667969 C 1335.429688 745.371094 1336.644531 741.261719 1336.644531 738.898438 C 1336.648438 734.773438 1334.375 721.78125 1332.664062 716.140625 C 1331.164062 711.195312 1330.757812 710.433594 1328.808594 708.949219 C 1327.46875 707.925781 1324.402344 703.925781 1320.851562 698.578125 C 1317.675781 693.785156 1314.945312 689.859375 1314.785156 689.859375 C 1314.628906 689.859375 1314.882812 690.773438 1315.347656 691.890625 Z M 1367.277344 731.84375 C 1376.6875 737.816406 1378.027344 737.746094 1375.085938 731.425781 C 1372.863281 726.652344 1369.878906 723.546875 1364.988281 720.914062 C 1362.585938 719.621094 1359.019531 717.144531 1357.066406 715.402344 C 1349.964844 709.089844 1350.414062 709.28125 1342.375 709.089844 C 1338.464844 708.992188 1334.773438 708.855469 1334.171875 708.792969 C 1333.230469 708.691406 1333.195312 708.773438 1333.898438 709.425781 C 1335.074219 710.519531 1358.988281 726.578125 1367.277344 731.84375 Z M 1340.550781 690.964844 C 1340.226562 690.964844 1339.964844 691.214844 1339.964844 691.515625 C 1339.964844 691.824219 1340.074219 692.078125 1340.207031 692.078125 C 1340.34375 692.078125 1340.605469 691.824219 1340.792969 691.515625 C 1340.980469 691.214844 1340.871094 690.964844 1340.550781 690.964844 Z M 1334.433594 159.335938 C 1340.0625 162.058594 1345.824219 164.902344 1347.238281 165.652344 C 1349.753906 166.988281 1352.371094 167.425781 1352.882812 166.597656 C 1353.019531 166.371094 1348.617188 163.339844 1343.09375 159.863281 C 1327.664062 150.152344 1320.867188 145.570312 1317.835938 142.847656 C 1315.304688 140.570312 1311.480469 134.414062 1303.222656 119.292969 C 1302.292969 117.589844 1301.929688 117.488281 1300.542969 118.542969 C 1300.007812 118.949219 1299.574219 119.894531 1299.574219 120.648438 C 1299.574219 123.101562 1307.941406 138.160156 1313.753906 146.171875 C 1316.339844 149.734375 1321.84375 153.238281 1334.433594 159.335938 Z M 1356.398438 165.492188 C 1362.847656 170.230469 1365.105469 170.933594 1365.742188 168.394531 C 1366.125 166.871094 1363.082031 159.839844 1360.671875 156.675781 C 1358.15625 153.378906 1345.34375 144.054688 1333.523438 136.921875 C 1330.132812 134.875 1326.351562 132.335938 1325.117188 131.277344 C 1321.5 128.183594 1316.53125 120.597656 1308.578125 106.019531 C 1307.078125 103.277344 1305.578125 101.183594 1305.105469 101.183594 C 1304.652344 101.183594 1303.441406 101.691406 1302.421875 102.308594 C 1300.703125 103.363281 1300.59375 103.585938 1300.953125 105.488281 C 1302.191406 112.101562 1315.117188 136.714844 1319.363281 140.550781 C 1321.8125 142.765625 1338.035156 153.589844 1347.886719 159.582031 C 1349.355469 160.476562 1353.1875 163.136719 1356.398438 165.492188 Z M 1367.761719 157.054688 C 1372.3125 157.054688 1371.449219 152.515625 1365.324219 144.253906 C 1363.574219 141.894531 1361.445312 139.535156 1360.59375 139.011719 C 1356.351562 136.410156 1354.695312 135.050781 1349.082031 129.535156 C 1345.742188 126.25 1340.828125 122.089844 1338.164062 120.289062 C 1335.503906 118.492188 1333.324219 116.832031 1333.324219 116.601562 C 1333.324219 115.648438 1334.503906 115.570312 1336.125 116.410156 C 1337.074219 116.902344 1337.972656 117.183594 1338.121094 117.035156 C 1338.269531 116.886719 1335.605469 114.316406 1332.203125 111.320312 C 1326.039062 105.898438 1326.011719 105.859375 1322.804688 99.238281 C 1321.039062 95.589844 1319.050781 90.921875 1318.386719 88.867188 C 1317.238281 85.292969 1317.117188 85.144531 1315.710938 85.488281 C 1314.898438 85.679688 1313.175781 86.335938 1311.875 86.933594 C 1308.199219 88.636719 1307.371094 90.207031 1307.714844 94.824219 C 1307.960938 98.160156 1308.472656 99.636719 1311.460938 105.601562 C 1321.09375 124.847656 1323.550781 127.996094 1333.660156 134.058594 C 1343.582031 140.007812 1347.882812 142.980469 1356.820312 150.058594 C 1364.632812 156.242188 1365.902344 157.054688 1367.761719 157.054688 Z M 1364.640625 132.554688 C 1364.238281 130.539062 1356.039062 117.976562 1352.074219 113.300781 C 1345.265625 105.277344 1338.757812 94.171875 1336.613281 86.925781 C 1335.308594 82.535156 1337.675781 83.074219 1339.769531 87.640625 L 1341.175781 90.714844 L 1342.75 88.339844 C 1343.617188 87.03125 1344.859375 85.277344 1345.511719 84.441406 C 1346.929688 82.617188 1347.164062 82.726562 1339.410156 81.667969 C 1331.65625 80.601562 1326.503906 80.535156 1324.273438 81.46875 C 1319.90625 83.292969 1319.839844 88.738281 1324.085938 97.125 C 1326.507812 101.910156 1327.335938 102.886719 1338.703125 114.300781 C 1345.328125 120.957031 1353.015625 128.820312 1355.78125 131.769531 C 1360.074219 136.355469 1361.0625 137.140625 1362.546875 137.140625 C 1363.945312 137.140625 1364.355469 136.867188 1364.640625 135.734375 C 1364.832031 134.964844 1364.832031 133.53125 1364.640625 132.554688 Z M 1351.910156 77.445312 C 1353.1875 76.027344 1355.726562 73.773438 1357.550781 72.445312 L 1360.871094 70.023438 L 1358.234375 68.710938 C 1356.785156 67.988281 1353.136719 65.679688 1350.132812 63.582031 C 1347.125 61.480469 1344.238281 59.746094 1343.714844 59.71875 C 1343.195312 59.703125 1342.503906 60.171875 1342.183594 60.773438 C 1341.863281 61.371094 1341.359375 63.136719 1341.066406 64.691406 C 1340.269531 68.878906 1341.214844 71.871094 1344.515625 75.648438 C 1348.695312 80.425781 1349.132812 80.535156 1351.910156 77.445312 Z M 1331.367188 303.398438 C 1329.351562 280.160156 1326.121094 247.386719 1325.546875 244.335938 C 1325.277344 242.894531 1324.421875 231.070312 1323.648438 218.058594 C 1322.875 205.046875 1321.871094 189.324219 1321.414062 183.117188 C 1320.957031 176.910156 1320.421875 168.132812 1320.230469 163.613281 C 1320.03125 159.097656 1319.683594 155.398438 1319.449219 155.398438 C 1318.28125 155.398438 1312.335938 149.054688 1309.367188 144.636719 C 1303.328125 135.65625 1298.171875 126.855469 1297.097656 123.699219 C 1295.835938 119.976562 1296.328125 118.347656 1299.242188 116.628906 L 1301.132812 115.511719 L 1299.765625 112.078125 C 1299.011719 110.191406 1298.261719 107.402344 1298.097656 105.878906 C 1297.710938 102.289062 1299.105469 100.339844 1302.714844 99.429688 L 1305.222656 98.800781 L 1304.84375 94.773438 C 1304.433594 90.40625 1304.769531 89.277344 1307.226562 86.636719 C 1308.753906 85.003906 1314.734375 82.808594 1316.53125 83.226562 C 1317.25 83.394531 1318.015625 82.804688 1319.097656 81.21875 C 1319.945312 79.984375 1321.496094 78.617188 1322.539062 78.179688 C 1325.007812 77.144531 1331.515625 77.164062 1337.011719 78.210938 C 1343.234375 79.40625 1343.722656 79.347656 1341.695312 77.632812 C 1340.773438 76.863281 1339.355469 74.867188 1338.539062 73.203125 C 1337.210938 70.492188 1337.082031 69.707031 1337.308594 65.785156 C 1337.601562 60.722656 1338.988281 58.070312 1342.117188 56.574219 C 1343.828125 55.757812 1344.15625 55.757812 1345.8125 56.542969 C 1346.808594 57.019531 1350.148438 59.292969 1353.238281 61.585938 C 1356.324219 63.882812 1359.894531 66.367188 1361.164062 67.105469 L 1363.476562 68.449219 L 1367.351562 67.144531 C 1369.480469 66.425781 1373.335938 65.574219 1375.914062 65.246094 C 1381.53125 64.542969 1402.40625 64.5 1407.464844 65.179688 C 1409.441406 65.441406 1415.914062 66.347656 1421.847656 67.183594 C 1438.714844 69.558594 1457.136719 69.152344 1460.738281 66.3125 C 1463.144531 64.417969 1468.042969 52.902344 1469.203125 46.421875 C 1469.984375 42.027344 1470.230469 35.886719 1469.625 35.886719 C 1469.429688 35.886719 1466.878906 36.65625 1463.953125 37.597656 C 1447.625 42.855469 1429.40625 43.921875 1418.332031 40.273438 C 1412.332031 38.296875 1402.644531 33.253906 1400.046875 30.761719 C 1396.671875 27.527344 1396.414062 25.734375 1398.347656 18.921875 L 1399.863281 13.578125 L 1398.386719 12.5 C 1395.269531 10.226562 1393.335938 3.117188 1395.21875 0.839844 C 1396.28125 -0.4375 1398.523438 -0.242188 1400.914062 1.320312 C 1403.320312 2.898438 1408.367188 4.65625 1412.027344 5.195312 C 1414.96875 5.632812 1415.347656 6.273438 1413.238281 7.234375 C 1411.390625 8.078125 1406.160156 7.058594 1401.929688 5.035156 C 1400.253906 4.230469 1398.664062 3.46875 1398.386719 3.339844 C 1397.726562 3.019531 1398.296875 6.402344 1399.316406 8.84375 C 1399.921875 10.289062 1400.914062 11.195312 1403.242188 12.40625 C 1406.25 13.980469 1407.605469 15.84375 1405.25 15.175781 C 1404.640625 15.003906 1403.644531 14.726562 1403.039062 14.554688 C 1402.15625 14.300781 1401.929688 14.5 1401.929688 15.527344 C 1401.929688 16.242188 1401.453125 18.542969 1400.871094 20.640625 C 1400.199219 23.074219 1399.976562 24.886719 1400.265625 25.644531 C 1401.757812 29.5625 1416.054688 37.007812 1425.953125 39.015625 C 1431.664062 40.171875 1443.847656 39.769531 1452.671875 38.136719 C 1463.6875 36.101562 1478.769531 30.921875 1493.363281 24.167969 C 1499.714844 21.230469 1502.304688 20.847656 1498.199219 23.449219 C 1495.691406 25.039062 1479.226562 32.394531 1475.378906 33.640625 L 1473.300781 34.3125 L 1473.292969 39.386719 C 1473.289062 42.183594 1472.914062 46.207031 1472.46875 48.339844 C 1471.683594 52.054688 1468.101562 60.117188 1465.5 64.03125 L 1464.261719 65.894531 L 1466.15625 65.496094 C 1468.34375 65.027344 1476.75 61.863281 1479.472656 60.484375 C 1480.492188 59.964844 1482.363281 58.699219 1483.628906 57.671875 C 1486.296875 55.515625 1486.582031 55.4375 1486.582031 56.84375 C 1486.582031 58.46875 1481.882812 62.386719 1477.5 64.417969 C 1465.570312 69.925781 1449.84375 72.9375 1436.789062 72.214844 C 1433.589844 72.03125 1423.632812 70.992188 1414.65625 69.886719 C 1399.5 68.03125 1397.5625 67.910156 1387.546875 68.171875 C 1380.746094 68.359375 1375.222656 68.796875 1372.605469 69.355469 C 1367.816406 70.390625 1361.921875 73.015625 1357.21875 76.207031 C 1353.316406 78.859375 1346.535156 86.507812 1343.539062 91.632812 L 1342.492188 93.433594 L 1344.328125 97.164062 C 1346.550781 101.691406 1349.746094 106.496094 1353.257812 110.582031 C 1354.695312 112.253906 1357.234375 115.878906 1358.90625 118.636719 C 1360.574219 121.390625 1362.84375 125.007812 1363.949219 126.671875 C 1366.273438 130.175781 1367.542969 135.394531 1366.578125 137.511719 C 1366.253906 138.21875 1365.742188 138.796875 1365.441406 138.796875 C 1365.136719 138.796875 1366.539062 141.324219 1368.558594 144.40625 C 1374.027344 152.75 1374.976562 156.398438 1372.355469 159.019531 C 1370.882812 160.492188 1369.628906 160.6875 1367.308594 159.808594 C 1366.484375 159.496094 1365.710938 159.34375 1365.582031 159.472656 C 1365.453125 159.597656 1365.957031 161.164062 1366.703125 162.945312 C 1368.8125 168.003906 1368.960938 169.34375 1367.609375 171.0625 C 1366.6875 172.230469 1365.96875 172.546875 1364.230469 172.546875 C 1361.757812 172.546875 1360.558594 172.027344 1357.507812 169.636719 C 1355.558594 168.109375 1355.339844 168.058594 1354.417969 168.886719 C 1352.375 170.738281 1350.585938 170.167969 1334.707031 162.585938 C 1332.882812 161.714844 1329.21875 160.003906 1326.566406 158.789062 L 1321.746094 156.574219 L 1322 158.058594 C 1322.300781 159.804688 1324.832031 189.808594 1325.324219 197.445312 C 1325.511719 200.335938 1326.019531 206.1875 1326.453125 210.445312 C 1326.886719 214.710938 1327.851562 224.167969 1328.59375 231.472656 C 1329.335938 238.773438 1330.335938 250.226562 1330.820312 256.921875 C 1331.613281 267.96875 1333.019531 283.359375 1336.074219 314.464844 C 1338.066406 334.703125 1338.253906 338.132812 1338.371094 356.511719 C 1338.515625 378.242188 1339.042969 374.941406 1330.832031 403.816406 C 1326.226562 420.011719 1325.847656 422.132812 1321.683594 454.71875 C 1318.449219 480.058594 1315.78125 499.871094 1308.710938 550.988281 C 1307.300781 561.175781 1305.667969 571.5625 1304.53125 577.546875 C 1302.558594 587.960938 1301.78125 594.78125 1301.226562 606.59375 C 1300.929688 612.984375 1300.464844 621.449219 1300.199219 625.40625 C 1299.933594 629.359375 1299.917969 634.714844 1300.15625 637.300781 C 1300.394531 639.886719 1300.613281 648.117188 1300.636719 655.585938 C 1300.679688 669.054688 1300.695312 669.199219 1302.113281 672.050781 C 1303.433594 674.699219 1311.648438 684.003906 1310.996094 682.117188 C 1310.839844 681.660156 1309.796875 679.207031 1308.679688 676.671875 C 1306.824219 672.464844 1306.636719 670.441406 1308.1875 671.488281 C 1308.507812 671.707031 1310.730469 675.113281 1313.128906 679.070312 C 1315.53125 683.027344 1318.660156 688.011719 1320.078125 690.144531 C 1321.5 692.277344 1323.691406 696.066406 1324.945312 698.554688 C 1327.363281 703.367188 1328.046875 703.96875 1332.46875 705.160156 C 1335.605469 706 1354.339844 707.148438 1363.203125 707.042969 C 1372.277344 706.929688 1382.011719 704.929688 1382.011719 703.167969 C 1382.011719 702.359375 1379.34375 700.492188 1377.175781 699.777344 C 1375.605469 699.257812 1374 699.269531 1369.746094 699.835938 C 1365.574219 700.386719 1363.644531 700.40625 1361.40625 699.921875 C 1359.808594 699.578125 1355.882812 699.148438 1352.691406 698.976562 C 1344.464844 698.519531 1342.625 697.933594 1338.996094 694.621094 C 1336.007812 691.890625 1335.816406 691.808594 1333.03125 691.980469 C 1330.445312 692.148438 1329.941406 691.984375 1328.125 690.394531 C 1327.011719 689.414062 1325.273438 687.214844 1324.265625 685.5 C 1318.964844 676.527344 1314.261719 668.988281 1313.339844 667.972656 C 1311.976562 666.46875 1312.027344 666.074219 1313.585938 666.074219 C 1314.292969 666.074219 1315.386719 666.628906 1316.011719 667.3125 C 1316.960938 668.355469 1324.476562 679.53125 1328.621094 686.085938 C 1329.230469 687.050781 1330.398438 688.324219 1331.21875 688.929688 C 1332.636719 689.976562 1332.988281 689.996094 1338.6875 689.320312 C 1349.6875 688.015625 1352.339844 687.386719 1355.246094 685.386719 C 1356.730469 684.363281 1360.1875 682.238281 1362.921875 680.664062 C 1365.664062 679.082031 1367.902344 677.464844 1367.902344 677.066406 C 1367.902344 675.675781 1365.285156 674.859375 1361.652344 675.109375 C 1358.890625 675.300781 1357.511719 675.757812 1355.007812 677.304688 C 1352.929688 678.589844 1350.625 679.457031 1348.257812 679.855469 C 1346.28125 680.191406 1342.609375 680.878906 1340.097656 681.375 C 1337.585938 681.878906 1335.34375 682.101562 1335.121094 681.878906 C 1334.734375 681.5 1336.136719 680.164062 1337.347656 679.757812 C 1337.652344 679.65625 1336.75 677.59375 1335.351562 675.171875 C 1333.535156 672.039062 1332.25 668.761719 1330.890625 663.785156 C 1328.09375 653.523438 1328.023438 652.667969 1329.636719 647.816406 C 1330.390625 645.527344 1331.320312 641.351562 1331.695312 638.523438 C 1332.125 635.285156 1332.605469 633.460938 1332.992188 633.589844 C 1334.566406 634.109375 1333.683594 645.59375 1331.714844 650.183594 L 1330.609375 652.765625 L 1331.988281 655.785156 C 1332.75 657.449219 1333.753906 660.871094 1334.222656 663.40625 C 1334.71875 666.066406 1335.695312 669.058594 1336.535156 670.5 C 1337.339844 671.867188 1338.5625 674.183594 1339.25 675.65625 C 1340.152344 677.582031 1340.777344 678.277344 1341.480469 678.140625 C 1342.34375 677.972656 1342.460938 677.152344 1342.535156 670.765625 C 1342.628906 662.6875 1343.527344 651.121094 1344.648438 643.664062 C 1346.394531 632 1346.140625 628.785156 1342.714844 619.179688 C 1339.445312 610.007812 1334.460938 594.96875 1333.824219 592.355469 C 1333.472656 590.917969 1332.96875 589.875 1332.699219 590.035156 C 1331.988281 590.476562 1332.109375 594.40625 1333.082031 602.394531 C 1333.558594 606.296875 1333.863281 610.582031 1333.757812 611.914062 L 1333.566406 614.339844 L 1332.847656 612.679688 C 1332.117188 610.996094 1331.117188 605.25 1329.925781 595.933594 C 1329.128906 589.683594 1328.289062 592.726562 1343.871094 545.457031 C 1349.9375 527.046875 1355.652344 509.121094 1356.570312 505.621094 C 1359.941406 492.761719 1363.707031 476.816406 1366.171875 464.953125 C 1367.566406 458.261719 1370.050781 447.925781 1371.695312 441.996094 C 1373.34375 436.058594 1375.433594 428.214844 1376.34375 424.566406 C 1377.253906 420.914062 1379.164062 413.820312 1380.585938 408.796875 C 1383.316406 399.148438 1386.898438 382.167969 1388.34375 372.003906 C 1389.492188 363.941406 1389.636719 351.339844 1388.785156 334.105469 C 1387.113281 300.441406 1387 295.621094 1387.554688 283.480469 C 1388.109375 271.453125 1388.054688 269.085938 1386.40625 235.898438 C 1385.628906 220.296875 1386.042969 195.019531 1387.171875 189.101562 C 1388.28125 183.300781 1389.335938 181.402344 1391.445312 181.402344 C 1392.675781 181.402344 1393.265625 181.757812 1393.734375 182.785156 C 1394.480469 184.425781 1394 185.160156 1392.824219 184.183594 C 1391.804688 183.34375 1391.773438 183.417969 1390.550781 189.148438 C 1389.15625 195.683594 1389.015625 207.964844 1390.03125 234.515625 C 1390.550781 248.058594 1391.183594 274.570312 1391.429688 293.441406 C 1391.679688 312.304688 1392.175781 331.972656 1392.53125 337.148438 C 1392.894531 342.449219 1393.054688 352.105469 1392.898438 359.28125 C 1392.648438 371.039062 1392.480469 372.742188 1390.671875 381.6875 C 1389.597656 387.011719 1388.21875 392.988281 1387.605469 394.964844 C 1382.515625 411.4375 1368.28125 467.089844 1366.238281 478.507812 C 1362.757812 497.996094 1354.191406 527.449219 1346.054688 547.945312 C 1344.242188 552.511719 1340.855469 562.378906 1338.53125 569.878906 L 1334.300781 583.515625 L 1335.828125 588.136719 C 1336.667969 590.679688 1339.589844 598.613281 1342.320312 605.765625 C 1348.800781 622.726562 1350.09375 627.683594 1349.75 634.257812 C 1349.609375 636.996094 1348.597656 643.253906 1347.503906 648.160156 C 1345.527344 657.015625 1344.402344 666.167969 1344.394531 673.472656 L 1344.390625 677.28125 L 1347.675781 676.90625 C 1349.78125 676.671875 1352.28125 675.847656 1354.632812 674.621094 C 1359.015625 672.335938 1363.113281 672.0625 1366.945312 673.804688 C 1371.652344 675.941406 1370.9375 678.164062 1364.179688 682.421875 C 1361.359375 684.203125 1357.746094 686.628906 1356.148438 687.820312 C 1353.523438 689.785156 1352.792969 690.042969 1348.40625 690.511719 C 1343.660156 691.019531 1341.839844 691.894531 1342.355469 693.429688 C 1343.058594 695.550781 1354.835938 697.203125 1369.875 697.285156 C 1378.257812 697.328125 1378.546875 697.371094 1380.742188 698.820312 C 1383.273438 700.492188 1385.300781 703.058594 1384.925781 704.117188 C 1384.511719 705.300781 1381.839844 706.367188 1375.566406 707.855469 C 1370.804688 708.980469 1367.9375 709.300781 1361.683594 709.390625 L 1353.800781 709.5 L 1356.90625 712.269531 C 1358.617188 713.792969 1362.660156 716.550781 1365.894531 718.40625 C 1370.316406 720.945312 1372.285156 722.441406 1373.8125 724.453125 C 1375.886719 727.175781 1378.03125 732.859375 1378.277344 736.296875 C 1378.394531 737.914062 1378.210938 738.246094 1377.03125 738.554688 C 1374.933594 739.09375 1372.972656 738.335938 1368.007812 735.070312 C 1365.515625 733.421875 1359.367188 729.449219 1354.347656 726.238281 C 1349.328125 723.027344 1342.769531 718.753906 1339.777344 716.753906 C 1336.78125 714.742188 1334.238281 713.097656 1334.128906 713.097656 C 1334.019531 713.097656 1334.296875 714.277344 1334.746094 715.722656 C 1336.253906 720.585938 1338.941406 733.230469 1339.25 736.929688 C 1339.65625 741.800781 1337.996094 747.050781 1335.253906 749.542969 C 1334.207031 750.496094 1333.5625 749.773438 1333.324219 749.613281 C 1331.664062 748.511719 1330.007812 746.46875 1328.847656 740.746094 C 1328.199219 737.558594 1327.441406 734.523438 1327.160156 733.988281 C 1326.878906 733.457031 1326.066406 730.089844 1325.351562 726.507812 C 1324.636719 722.921875 1322.984375 717.257812 1321.683594 713.921875 C 1320.378906 710.574219 1317.488281 703.207031 1315.253906 697.535156 C 1313.019531 691.871094 1311.195312 687.007812 1311.195312 686.734375 C 1311.195312 686.464844 1309.308594 684.378906 1307.003906 682.101562 C 1304.699219 679.828125 1301.832031 676.328125 1300.632812 674.324219 C 1298.613281 670.949219 1298.40625 670.214844 1297.84375 664.363281 C 1296.363281 649.046875 1298.570312 592.394531 1300.949219 584.753906 C 1301.09375 584.289062 1301.953125 578.929688 1302.859375 572.84375 C 1305.722656 553.621094 1306.800781 546.898438 1307.335938 544.902344 C 1307.621094 543.839844 1308.242188 539.605469 1308.71875 535.496094 C 1309.191406 531.390625 1309.929688 526.160156 1310.359375 523.878906 C 1310.789062 521.597656 1311.398438 516.492188 1311.71875 512.539062 C 1313.039062 496.28125 1314.007812 485.761719 1314.515625 482.105469 C 1314.8125 479.976562 1315.5625 473.128906 1316.1875 466.890625 C 1319.242188 436.351562 1321.671875 422.898438 1327.230469 405.753906 C 1330.171875 396.675781 1334.121094 380.878906 1334.972656 374.769531 C 1336.136719 366.46875 1335.445312 347.742188 1333.050781 322.488281 C 1332.890625 320.8125 1332.132812 312.222656 1331.367188 303.398438 " fill-opacity="1" fill-rule="nonzero"/></g><path fill="#ffffff" d="M 1371.582031 393.492188 C 1368.527344 389.660156 1367.15625 388.542969 1366.292969 389.179688 C 1362.871094 391.710938 1360.902344 392.847656 1360.5625 392.480469 C 1360.339844 392.242188 1360.472656 391.933594 1360.855469 391.800781 C 1361.238281 391.660156 1362.570312 390.699219 1363.8125 389.664062 C 1366.226562 387.644531 1366.792969 387.480469 1368.335938 388.378906 C 1369.730469 389.191406 1373.714844 394.347656 1373.714844 395.34375 C 1373.714844 395.796875 1372.753906 394.964844 1371.582031 393.492188 " fill-opacity="1" fill-rule="nonzero"/></svg>