<svg xmlns="http://www.w3.org/2000/svg" xmlns:xlink="http://www.w3.org/1999/xlink" width="70" zoomAndPan="magnify" viewBox="0 0 52.5 52.499999" height="70" preserveAspectRatio="xMidYMid meet" version="1.0"><defs><clipPath id="205dc8b611"><path d="M 0.371094 0.371094 L 51.632812 0.371094 L 51.632812 51.632812 L 0.371094 51.632812 Z M 0.371094 0.371094 " clip-rule="nonzero"/></clipPath><clipPath id="1122d8cb4a"><path d="M 11.152344 17.539062 L 40.871094 17.539062 L 40.871094 34.628906 L 11.152344 34.628906 Z M 11.152344 17.539062 " clip-rule="nonzero"/></clipPath></defs><g clip-path="url(#205dc8b611)"><path fill="#d6a993" d="M 51.632812 26.003906 C 51.632812 26.839844 51.589844 27.679688 51.507812 28.515625 C 51.425781 29.347656 51.304688 30.179688 51.140625 31.003906 C 50.976562 31.824219 50.773438 32.640625 50.527344 33.441406 C 50.285156 34.246094 50.003906 35.035156 49.679688 35.808594 C 49.359375 36.585938 49 37.34375 48.605469 38.085938 C 48.210938 38.824219 47.78125 39.542969 47.3125 40.242188 C 46.847656 40.941406 46.347656 41.613281 45.816406 42.261719 C 45.28125 42.910156 44.71875 43.53125 44.125 44.125 C 43.53125 44.71875 42.910156 45.28125 42.261719 45.816406 C 41.613281 46.347656 40.941406 46.847656 40.242188 47.3125 C 39.542969 47.78125 38.824219 48.210938 38.085938 48.605469 C 37.34375 49 36.585938 49.359375 35.808594 49.679688 C 35.035156 50.003906 34.246094 50.285156 33.441406 50.527344 C 32.640625 50.773438 31.824219 50.976562 31.003906 51.140625 C 30.179688 51.304688 29.347656 51.425781 28.515625 51.507812 C 27.679688 51.589844 26.839844 51.632812 26.003906 51.632812 C 25.164062 51.632812 24.324219 51.589844 23.488281 51.507812 C 22.65625 51.425781 21.824219 51.304688 21 51.140625 C 20.179688 50.976562 19.363281 50.773438 18.5625 50.527344 C 17.757812 50.285156 16.96875 50.003906 16.195312 49.679688 C 15.417969 49.359375 14.660156 49 13.917969 48.605469 C 13.179688 48.210938 12.460938 47.78125 11.761719 47.3125 C 11.066406 46.847656 10.390625 46.347656 9.742188 45.816406 C 9.09375 45.28125 8.472656 44.71875 7.878906 44.125 C 7.285156 43.53125 6.722656 42.910156 6.1875 42.261719 C 5.65625 41.613281 5.15625 40.941406 4.691406 40.242188 C 4.226562 39.542969 3.792969 38.824219 3.398438 38.085938 C 3.003906 37.34375 2.644531 36.585938 2.324219 35.808594 C 2 35.035156 1.71875 34.246094 1.476562 33.441406 C 1.230469 32.640625 1.027344 31.824219 0.863281 31.003906 C 0.699219 30.179688 0.578125 29.347656 0.496094 28.515625 C 0.414062 27.679688 0.371094 26.839844 0.371094 26.003906 C 0.371094 25.164062 0.414062 24.324219 0.496094 23.488281 C 0.578125 22.65625 0.699219 21.824219 0.863281 21 C 1.027344 20.179688 1.230469 19.363281 1.476562 18.5625 C 1.71875 17.757812 2 16.96875 2.324219 16.195312 C 2.644531 15.417969 3.003906 14.660156 3.398438 13.917969 C 3.792969 13.179688 4.226562 12.460938 4.691406 11.761719 C 5.15625 11.066406 5.65625 10.390625 6.1875 9.742188 C 6.722656 9.09375 7.285156 8.472656 7.878906 7.878906 C 8.472656 7.285156 9.09375 6.722656 9.742188 6.1875 C 10.390625 5.65625 11.066406 5.15625 11.761719 4.691406 C 12.460938 4.226562 13.179688 3.792969 13.917969 3.398438 C 14.660156 3.003906 15.417969 2.644531 16.195312 2.324219 C 16.96875 2 17.757812 1.71875 18.5625 1.476562 C 19.363281 1.230469 20.179688 1.027344 21 0.863281 C 21.824219 0.699219 22.65625 0.578125 23.488281 0.496094 C 24.324219 0.414062 25.164062 0.371094 26.003906 0.371094 C 26.839844 0.371094 27.679688 0.414062 28.515625 0.496094 C 29.347656 0.578125 30.179688 0.699219 31.003906 0.863281 C 31.824219 1.027344 32.640625 1.230469 33.441406 1.476562 C 34.246094 1.71875 35.035156 2 35.808594 2.324219 C 36.585938 2.644531 37.34375 3.003906 38.085938 3.398438 C 38.824219 3.792969 39.542969 4.226562 40.242188 4.691406 C 40.941406 5.15625 41.613281 5.65625 42.261719 6.1875 C 42.910156 6.722656 43.53125 7.285156 44.125 7.878906 C 44.71875 8.472656 45.28125 9.09375 45.816406 9.742188 C 46.347656 10.390625 46.847656 11.066406 47.3125 11.761719 C 47.78125 12.460938 48.210938 13.179688 48.605469 13.917969 C 49 14.660156 49.359375 15.417969 49.679688 16.195312 C 50.003906 16.96875 50.285156 17.757812 50.527344 18.5625 C 50.773438 19.363281 50.976562 20.179688 51.140625 21 C 51.304688 21.824219 51.425781 22.65625 51.507812 23.488281 C 51.589844 24.324219 51.632812 25.164062 51.632812 26.003906 Z M 51.632812 26.003906 " fill-opacity="1" fill-rule="nonzero"/></g><g clip-path="url(#1122d8cb4a)"><path fill="#000000" d="M 40.855469 32.28125 C 40.855469 32.804688 40.65625 33.332031 40.25 33.734375 C 39.4375 34.535156 38.125 34.535156 37.3125 33.734375 L 26.164062 22.699219 L 14.914062 33.824219 C 14.101562 34.628906 12.789062 34.628906 11.976562 33.824219 C 11.167969 33.023438 11.167969 31.722656 11.976562 30.921875 L 24.695312 18.34375 C 25.503906 17.539062 26.820312 17.539062 27.628906 18.34375 L 40.25 30.832031 C 40.65625 31.230469 40.855469 31.753906 40.855469 32.28125 Z M 40.855469 32.28125 " fill-opacity="1" fill-rule="nonzero"/></g></svg>