<svg xmlns="http://www.w3.org/2000/svg" xmlns:xlink="http://www.w3.org/1999/xlink" width="70" zoomAndPan="magnify" viewBox="0 0 52.5 52.499999" height="70" preserveAspectRatio="xMidYMid meet" version="1.0"><defs><clipPath id="5c96441d27"><path d="M 1.59375 1.375 L 50.628906 1.375 L 50.628906 50.40625 L 1.59375 50.40625 Z M 1.59375 1.375 " clip-rule="nonzero"/></clipPath><clipPath id="cd7693735d"><path d="M 9.589844 16.03125 L 42 16.03125 L 42 36 L 9.589844 36 Z M 9.589844 16.03125 " clip-rule="nonzero"/></clipPath></defs><g clip-path="url(#5c96441d27)"><path fill="#d6a993" d="M 27.503906 17.027344 L 39.132812 28.65625 C 39.542969 29.070312 39.753906 29.613281 39.753906 30.160156 C 39.753906 30.703125 39.542969 31.242188 39.132812 31.660156 C 38.300781 32.484375 36.960938 32.488281 36.128906 31.660156 L 26 21.527344 L 15.875 31.660156 C 15.042969 32.484375 13.699219 32.484375 12.871094 31.660156 C 12.042969 30.828125 12.042969 29.484375 12.871094 28.660156 L 24.496094 17.027344 C 25.328125 16.203125 26.675781 16.203125 27.503906 17.027344 Z M 26 1.375 C 12.402344 1.375 1.375 12.402344 1.375 26 C 1.375 39.601562 12.402344 50.628906 26 50.628906 C 39.605469 50.628906 50.628906 39.601562 50.628906 26 C 50.628906 12.402344 39.605469 1.375 26 1.375 " fill-opacity="1" fill-rule="nonzero"/></g><g clip-path="url(#cd7693735d)"><path fill="#000000" d="M 24.34375 16.6875 C 21.464844 19.558594 14.371094 26.640625 10.878906 30.125 C 9.585938 31.417969 9.585938 33.511719 10.878906 34.800781 C 12.171875 36.09375 14.269531 36.09375 15.5625 34.800781 L 25.847656 24.535156 C 25.894531 24.488281 25.96875 24.488281 26.015625 24.535156 C 27.589844 26.109375 33.238281 31.746094 36.300781 34.800781 C 36.921875 35.421875 37.765625 35.769531 38.644531 35.769531 C 39.523438 35.769531 40.363281 35.421875 40.984375 34.800781 C 42.277344 33.511719 42.277344 31.417969 40.984375 30.128906 C 37.492188 26.640625 30.398438 19.558594 27.519531 16.6875 C 27.097656 16.265625 26.527344 16.03125 25.933594 16.03125 C 25.335938 16.03125 24.765625 16.265625 24.34375 16.6875 Z M 24.34375 16.6875 " fill-opacity="1" fill-rule="nonzero"/></g></svg>