<svg xmlns="http://www.w3.org/2000/svg" xmlns:xlink="http://www.w3.org/1999/xlink" width="2000" zoomAndPan="magnify" viewBox="0 0 1500 749.999995" height="1000" preserveAspectRatio="xMidYMid meet" version="1.0"><defs><clipPath id="f62fab57fe"><path d="M 0 153 L 311.964844 153 L 311.964844 750 L 0 750 Z M 0 153 " clip-rule="nonzero"/></clipPath></defs><g clip-path="url(#f62fab57fe)"><path fill="#000000" d="M 11.28125 347.980469 C 12.179688 349.003906 14.871094 353 17.261719 356.859375 C 27.261719 372.992188 29.859375 377.039062 32.953125 381.296875 C 34.746094 383.765625 36.785156 386.808594 37.484375 388.0625 C 38.390625 389.679688 38.859375 390.085938 39.101562 389.460938 C 39.285156 388.976562 40.875 379.84375 42.640625 369.167969 L 45.84375 349.757812 L 40.144531 343.964844 C 29.203125 332.847656 16.363281 321.105469 13.9375 320.003906 C 10.960938 318.652344 7.796875 318.566406 6.046875 319.792969 C 1.355469 323.078125 2.039062 333.566406 7.539062 342.640625 C 8.695312 344.550781 10.382812 346.953125 11.28125 347.980469 Z M 53.644531 283.71875 C 54.273438 281.007812 55.488281 260.179688 55.105469 258.652344 C 54.898438 257.824219 52.039062 254.851562 48.339844 251.613281 C 44.816406 248.527344 40.394531 244.203125 38.5 242 C 32.253906 234.710938 23.359375 226.203125 20.625 224.902344 C 17.257812 223.304688 16.773438 223.296875 15.65625 224.890625 C 14.355469 226.753906 14.5 228.28125 16.578125 234.371094 C 20.0625 244.585938 24.316406 251.316406 33 260.347656 C 36.109375 263.582031 40.074219 268.347656 41.808594 270.933594 C 43.542969 273.523438 46.835938 277.820312 49.117188 280.484375 C 53.164062 285.203125 53.277344 285.285156 53.644531 283.71875 Z M 78.066406 247.527344 L 83.449219 258.394531 L 84.328125 255.253906 C 84.8125 253.523438 85.527344 250.65625 85.921875 248.878906 C 86.3125 247.097656 86.953125 245.113281 87.34375 244.464844 C 87.730469 243.820312 88.792969 241.21875 89.703125 238.691406 L 91.355469 234.097656 L 84.019531 223.105469 C 79.980469 217.058594 75.398438 210.128906 73.832031 207.703125 C 70.605469 202.707031 67.425781 198.484375 65.75 196.972656 C 64.429688 195.777344 62.347656 195.625 61.328125 196.644531 C 60.347656 197.628906 60.4375 204.394531 61.503906 209.453125 C 62.765625 215.464844 66.972656 225.132812 78.066406 247.527344 Z M 81.847656 264.320312 C 81.898438 266.742188 81.914062 266.765625 82.433594 265.054688 C 82.730469 264.082031 82.847656 262.957031 82.695312 262.554688 C 82.160156 261.109375 81.796875 261.859375 81.847656 264.320312 Z M 89.15625 205.921875 C 93.195312 193.316406 97.019531 177.410156 97.277344 172.164062 C 97.476562 168.09375 97.351562 167.332031 96.269531 166.070312 C 93.78125 163.175781 91.957031 163.296875 89.226562 166.542969 C 85.785156 170.636719 78.300781 186.457031 75.027344 196.554688 L 73.398438 201.582031 L 79.152344 210.210938 C 82.316406 214.964844 85.101562 218.722656 85.339844 218.570312 C 85.582031 218.425781 85.96875 217.304688 86.195312 216.089844 C 86.421875 214.871094 87.757812 210.296875 89.15625 205.921875 Z M 117.398438 235.9375 C 116.664062 234.160156 115.601562 231.109375 115.039062 229.175781 C 113.707031 224.570312 112.5625 221.820312 111.976562 221.820312 C 111.714844 221.820312 110.625 222.363281 109.550781 223.015625 C 104.738281 225.949219 103.695312 235.257812 106.726562 248.289062 C 107.589844 252.011719 108.84375 257.433594 109.507812 260.347656 C 110.175781 263.257812 111.058594 266.171875 111.46875 266.816406 C 111.878906 267.464844 112.671875 269.582031 113.226562 271.523438 C 113.777344 273.464844 115.976562 278.824219 118.113281 283.4375 L 121.996094 291.820312 L 132.957031 270.59375 L 128.636719 261.941406 C 126.257812 257.183594 123.0625 250.113281 121.527344 246.230469 C 119.992188 242.347656 118.136719 237.714844 117.398438 235.9375 Z M 109.769531 304.972656 L 110.214844 317.992188 L 114.933594 308.285156 C 120.972656 295.863281 120.972656 295.867188 116.074219 285.78125 C 114.070312 281.652344 112.117188 277.230469 111.734375 275.949219 C 111.347656 274.667969 110.84375 273.738281 110.609375 273.882812 C 110.375 274.027344 109.992188 278.15625 109.753906 283.050781 C 109.519531 287.949219 109.523438 297.8125 109.769531 304.972656 Z M 169.863281 252.996094 C 169.363281 250.246094 168.652344 247.203125 168.28125 246.238281 L 167.601562 244.480469 L 166.460938 245.945312 C 165.835938 246.75 164.601562 248.863281 163.722656 250.640625 C 162.261719 253.585938 162.101562 254.59375 161.90625 261.875 C 161.679688 270.179688 162.207031 274.195312 164.769531 283.582031 C 166.59375 290.285156 166.839844 295.050781 165.617188 300.132812 C 165.046875 302.515625 164.386719 304.726562 164.160156 305.050781 C 163.460938 306.039062 160.964844 318.238281 161.375 318.652344 C 161.894531 319.171875 164.34375 317.238281 172.382812 309.945312 C 177.1875 305.589844 179.253906 303.308594 179.519531 302.078125 C 179.722656 301.125 179.921875 297.34375 179.960938 293.671875 C 180.027344 287.007812 180.027344 286.988281 176.539062 276.613281 C 172.316406 264.054688 171.039062 259.539062 169.863281 252.996094 Z M 154.296875 295.527344 C 151.207031 302.957031 151.078125 304.441406 152.410156 317.847656 C 152.785156 321.648438 152.945312 325.15625 152.757812 325.640625 C 152.128906 327.277344 154.0625 326.554688 155.519531 324.609375 C 157.25 322.292969 157.597656 321.179688 160.34375 309.042969 C 163.332031 295.875 163.761719 291.488281 162.589844 286.273438 C 162.074219 283.984375 161.511719 281.871094 161.339844 281.578125 C 160.933594 280.894531 157.816406 287.074219 154.296875 295.527344 Z M 150.210938 327.96875 C 150.148438 327.335938 149.921875 323.175781 149.710938 318.726562 C 149.496094 314.28125 149.097656 310.640625 148.820312 310.640625 C 148.542969 310.640625 147.671875 312.691406 146.882812 315.199219 C 146.089844 317.707031 145.261719 321.484375 145.035156 323.597656 C 144.683594 326.921875 144.785156 327.625 145.796875 328.875 C 146.8125 330.132812 147.1875 330.242188 148.644531 329.722656 C 149.796875 329.3125 150.289062 328.761719 150.210938 327.96875 Z M 159.238281 428.863281 C 159.605469 429.234375 171.527344 430.914062 180.667969 431.882812 C 186.523438 432.5 188.425781 432.464844 194.230469 431.632812 C 197.941406 431.105469 202.21875 430.121094 203.734375 429.449219 C 205.25 428.78125 211.714844 426.902344 218.101562 425.277344 C 224.484375 423.652344 229.773438 422.265625 229.847656 422.1875 C 230.070312 421.964844 214.730469 418.324219 211.207031 417.757812 C 205.894531 416.914062 204.996094 417.015625 198.113281 419.238281 C 191.914062 421.242188 191.25 421.34375 187.097656 420.890625 C 179.480469 420.058594 174.191406 420.382812 167.511719 422.085938 C 164.074219 422.964844 161.007812 423.523438 160.695312 423.332031 C 160.113281 422.96875 158.699219 428.320312 159.238281 428.863281 Z M 158.304688 432.078125 C 158.035156 432.25 157.632812 433.335938 157.414062 434.492188 C 157.199219 435.652344 156.875 436.980469 156.699219 437.441406 C 156.511719 437.929688 156.730469 438.28125 157.222656 438.28125 C 157.691406 438.28125 161.09375 440.300781 164.789062 442.765625 C 172.566406 447.964844 180.011719 451.671875 183.65625 452.164062 C 187.167969 452.636719 196.398438 451.519531 202.886719 449.835938 C 210.171875 447.941406 213.351562 445.730469 223.128906 435.742188 C 227.582031 431.191406 232.347656 426.726562 233.71875 425.820312 C 236.71875 423.828125 235.886719 423.726562 229.144531 425.265625 C 220.902344 427.148438 208.683594 430.519531 204.734375 432.003906 C 199.367188 434.023438 189 435.558594 183.71875 435.121094 C 181.382812 434.929688 174.816406 434.097656 169.136719 433.269531 C 163.453125 432.449219 158.578125 431.910156 158.304688 432.078125 Z M 4.742188 317.203125 C 6.449219 316.058594 7.316406 315.871094 9.808594 316.121094 C 14.886719 316.625 18.148438 318.820312 28.703125 328.8125 C 34.128906 333.949219 39.703125 339.503906 41.097656 341.160156 C 42.492188 342.816406 45.210938 345.585938 45.328125 345.34375 C 45.917969 344.167969 50.011719 320.054688 52.628906 297.285156 L 53.449219 290.109375 L 51.78125 288.171875 C 45.722656 281.132812 41.847656 276.246094 39.269531 272.40625 C 37.644531 269.980469 34.011719 265.613281 31.191406 262.699219 C 21.367188 252.546875 15.460938 242.996094 12.960938 233.21875 C 11.515625 227.566406 11.507812 225.542969 12.925781 223.21875 C 15.757812 218.570312 22.589844 220.800781 30.449219 228.9375 C 33.074219 231.65625 37.082031 236.128906 39.351562 238.878906 C 41.625 241.628906 46.265625 246.3125 49.667969 249.292969 L 55.855469 254.707031 L 56.226562 251.9375 C 57.191406 244.789062 58.476562 239.179688 60.667969 232.585938 L 63.050781 225.417969 L 60.949219 219.804688 C 57.003906 209.277344 55.945312 199.886719 58.269531 196.070312 C 60.628906 192.199219 64.964844 192.15625 68.648438 195.949219 C 69.894531 197.238281 71.046875 198.289062 71.210938 198.289062 C 71.371094 198.28125 72 196.761719 72.605469 194.902344 C 73.210938 193.046875 75.363281 187.65625 77.390625 182.929688 C 83.816406 167.90625 88.558594 161.234375 92.804688 161.234375 C 95.402344 161.234375 97.800781 162.644531 99.203125 164.992188 C 100.023438 166.359375 100.296875 168.003906 100.308594 171.527344 C 100.320312 176.792969 99.75 179.359375 94.445312 197.996094 C 89.492188 215.390625 88.050781 221.457031 88.460938 223.09375 C 88.652344 223.847656 89.59375 225.390625 90.554688 226.523438 C 92.09375 228.339844 92.398438 228.480469 93.140625 227.699219 C 93.605469 227.214844 96.433594 219.804688 99.429688 211.230469 C 105.34375 194.296875 111.324219 179.769531 117.761719 166.71875 C 120.996094 160.160156 122.488281 157.804688 124.753906 155.691406 C 127.167969 153.433594 128.003906 153 129.960938 153 C 131.777344 153 132.691406 153.398438 134.089844 154.796875 C 136.433594 157.136719 137.320312 160.539062 136.835938 165.351562 C 136.429688 169.46875 132.359375 185.328125 129.136719 195.347656 C 126.027344 205.035156 124.386719 210.746094 121.5625 221.699219 L 118.933594 231.863281 L 120.007812 234.933594 C 120.601562 236.617188 121.664062 239.316406 122.378906 240.9375 C 123.085938 242.554688 124.339844 245.730469 125.160156 247.996094 C 127.933594 255.660156 134.28125 267.363281 135.449219 266.972656 C 135.734375 266.875 139.070312 262.761719 142.855469 257.828125 C 154.824219 242.226562 170.234375 222.753906 171.820312 221.230469 C 172.660156 220.425781 176.714844 215.527344 180.824219 210.347656 C 192.382812 195.804688 196.253906 192.410156 201.300781 192.410156 C 204.046875 192.410156 205.421875 194.007812 205.765625 197.589844 C 206.195312 202.03125 204.042969 208.6875 198.597656 219.761719 C 193.789062 229.539062 191.054688 233.925781 179.695312 250.054688 C 173.015625 259.535156 173.097656 257.566406 178.675781 274.464844 L 182.558594 286.226562 L 182.492188 294.03125 C 182.429688 301.613281 182.457031 301.816406 183.582031 301.214844 C 184.214844 300.875 184.734375 300.371094 184.734375 300.09375 C 184.734375 298.761719 214.101562 274.910156 220.503906 271.039062 C 229.453125 265.628906 235.195312 266.828125 235.472656 274.15625 C 235.585938 277.121094 231.382812 283.21875 222.949219 292.316406 C 219.160156 296.410156 215.308594 300.683594 214.386719 301.816406 C 211.28125 305.644531 198.605469 318.539062 190.59375 326.019531 C 186.210938 330.109375 181.921875 334.476562 181.054688 335.726562 C 180.121094 337.074219 179.117188 339.777344 178.578125 342.402344 C 178.078125 344.828125 176.355469 351.976562 174.753906 358.285156 C 171.628906 370.566406 168.609375 384.375 167.992188 389.167969 C 167.9375 389.605469 167.703125 390.785156 167.351562 392.433594 C 168.875 391.195312 174.410156 391.960938 178.910156 394.089844 C 185.34375 397.140625 190.449219 396.488281 194.75 392.066406 C 196.199219 390.582031 198.042969 389.023438 198.851562 388.597656 C 201.203125 387.375 204.808594 387.101562 207.789062 387.917969 C 211.054688 388.8125 212.382812 389.789062 212.382812 391.296875 C 212.382812 392.6875 211.996094 392.679688 209.148438 391.226562 C 204.601562 388.90625 199.363281 390.144531 196.460938 394.222656 C 194.371094 397.152344 190.96875 398.550781 185.910156 398.550781 C 182.105469 398.550781 180.960938 398.285156 177.558594 396.605469 C 174.570312 395.128906 172.820312 394.652344 170.339844 394.628906 C 168.578125 394.613281 167.488281 394.472656 166.984375 394.152344 C 165.1875 402.421875 161.59375 417.90625 160.902344 420.074219 C 160.664062 420.828125 161.734375 420.703125 167.234375 419.3125 C 174.300781 417.527344 179.140625 417.195312 186.796875 417.960938 C 191.179688 418.398438 191.910156 418.300781 197.382812 416.53125 C 202.769531 414.789062 203.710938 414.65625 208.558594 414.953125 C 211.71875 415.148438 217.644531 416.214844 223.261719 417.601562 C 228.4375 418.882812 234.527344 420.113281 236.792969 420.339844 C 241.230469 420.785156 242.378906 421.339844 242.378906 423.050781 C 242.378906 423.808594 241.242188 424.714844 238.707031 425.976562 C 235.796875 427.421875 233.113281 429.738281 225.910156 437.027344 C 214.730469 448.332031 211.820312 450.351562 203.558594 452.535156 C 196.042969 454.519531 185.695312 455.5625 181.921875 454.714844 C 177.777344 453.785156 171.558594 450.625 163.601562 445.402344 C 159.585938 442.765625 156.097656 440.808594 155.859375 441.0625 C 155.070312 441.890625 151.363281 457.832031 149.679688 467.644531 L 148.019531 477.304688 L 152.226562 481.191406 C 160.269531 488.625 172.929688 495.789062 180.914062 497.421875 C 183.5 497.953125 189.453125 498.53125 194.144531 498.703125 C 202.550781 499.011719 202.757812 498.988281 208.265625 497.15625 C 220.40625 493.105469 229.066406 487.816406 247.5625 473.140625 C 254.9375 467.292969 260.46875 461.5 273.449219 446.046875 C 281.320312 436.679688 282.992188 434.257812 289.84375 422.335938 C 297.222656 409.484375 301.257812 396.65625 303.511719 378.871094 C 304.144531 373.859375 305.464844 364.726562 306.433594 358.578125 C 307.40625 352.433594 308.523438 344.410156 308.917969 340.757812 C 309.585938 334.550781 309.714844 334.125 310.859375 334.285156 C 311.96875 334.445312 312.066406 334.792969 311.902344 337.992188 C 311.800781 339.933594 310.925781 346.949219 309.960938 353.578125 C 308.988281 360.210938 307.683594 369.34375 307.054688 373.875 C 305.019531 388.570312 304.210938 392.671875 301.496094 402.128906 C 298.59375 412.242188 296.375 417.101562 289.144531 429.164062 C 283.648438 438.332031 282.21875 440.222656 270.480469 453.871094 C 258.699219 467.5625 253.863281 472.128906 240.542969 482.121094 C 228.292969 491.3125 223.429688 494.289062 215.097656 497.691406 C 205.589844 501.574219 203.265625 502 193.851562 501.570312 C 180.21875 500.945312 171.390625 498.511719 164.199219 493.390625 C 162.714844 492.335938 160.042969 490.585938 158.265625 489.507812 C 156.488281 488.429688 153.332031 486.0625 151.257812 484.246094 L 147.484375 480.949219 L 147.859375 485.421875 C 148.433594 492.183594 151.9375 505.929688 155.347656 514.785156 C 157.023438 519.132812 162.839844 531.953125 168.273438 543.277344 C 173.710938 554.601562 179.53125 567.167969 181.210938 571.203125 C 182.890625 575.238281 187.441406 585.5625 191.320312 594.144531 C 195.203125 602.722656 199.691406 612.890625 201.296875 616.730469 C 202.902344 620.574219 205.429688 626.398438 206.90625 629.671875 C 209.644531 635.730469 216.554688 651.980469 227.199219 677.390625 C 230.453125 685.152344 234.78125 696.007812 236.816406 701.507812 C 238.855469 707.007812 242.417969 716.40625 244.738281 722.386719 C 249.714844 735.222656 255.320312 751.492188 255.320312 753.101562 C 255.320312 753.902344 254.980469 754.175781 254.148438 754.046875 C 253.195312 753.890625 252.277344 751.832031 249.234375 742.972656 C 247.175781 736.988281 243.832031 727.855469 241.804688 722.683594 C 239.777344 717.507812 236.839844 709.804688 235.28125 705.566406 C 229.875 690.882812 217.261719 660.433594 205.332031 633.273438 C 202.492188 626.804688 199.230469 619.242188 198.085938 616.46875 C 196.941406 613.695312 192.90625 604.5625 189.121094 596.175781 C 185.335938 587.785156 180.183594 576.160156 177.675781 570.335938 C 175.171875 564.511719 169.273438 551.808594 164.566406 542.101562 C 154.445312 521.214844 150.136719 510.25 147.339844 498.257812 C 144.617188 486.566406 144.488281 480.285156 146.722656 467.988281 C 148.578125 457.761719 150.015625 451.289062 152.089844 443.871094 C 152.90625 440.957031 154.894531 432.753906 156.511719 425.636719 C 158.128906 418.519531 160.214844 409.875 161.148438 406.425781 C 162.082031 402.980469 163.554688 396.496094 164.425781 392.015625 C 167.335938 377.015625 170.113281 364.726562 173.023438 353.972656 C 176.273438 341.964844 176.445312 340.839844 174.683594 342.992188 C 170.578125 348.007812 166.625 354.929688 164.78125 360.34375 C 163.679688 363.578125 159.539062 374.433594 155.585938 384.460938 C 151.632812 394.488281 146.222656 408.496094 143.566406 415.585938 C 137.375 432.101562 130.574219 447.230469 126.191406 454.234375 C 124.296875 457.269531 119.394531 464.515625 115.300781 470.339844 C 102.320312 488.8125 97.085938 498.363281 95.480469 506.496094 C 94.566406 511.15625 94.585938 511.777344 96.105469 525.476562 C 97.851562 541.242188 97.753906 540.859375 113.875 595.039062 C 117.242188 606.363281 121.605469 621.449219 123.566406 628.566406 C 133.792969 665.675781 146.710938 709.164062 155.808594 737.09375 C 172.855469 789.421875 174.886719 795.996094 174.222656 796.664062 C 172.605469 798.277344 172.574219 798.183594 153.625 739.152344 C 142.894531 705.730469 131.28125 666.976562 123.515625 638.679688 C 120.601562 628.066406 116.464844 613.507812 114.320312 606.328125 C 112.179688 599.152344 108.105469 585.335938 105.265625 575.628906 C 102.425781 565.925781 100.085938 558.328125 100.066406 558.753906 C 100.050781 559.175781 103.09375 577.96875 106.832031 600.515625 C 113.847656 642.78125 118.457031 668.164062 119.445312 669.917969 C 119.75 670.46875 120.796875 674.890625 121.765625 679.742188 C 122.730469 684.59375 124.339844 692.667969 125.335938 697.683594 C 129.371094 717.988281 135.824219 743.609375 143.378906 769.328125 C 144.878906 774.441406 145.320312 776.742188 144.878906 777.1875 C 144.53125 777.53125 143.972656 777.636719 143.632812 777.429688 C 142.742188 776.878906 140.210938 768.664062 134.828125 748.855469 C 127.773438 722.890625 125.859375 714.933594 120.398438 688.859375 C 112.875 652.921875 111.8125 647.1875 104.507812 602.980469 C 96.839844 556.601562 95.390625 546.828125 94.132812 532.984375 C 93.792969 529.261719 93.222656 524.628906 92.859375 522.691406 C 89.835938 506.410156 93.636719 496.011719 112.101562 470.039062 C 123.960938 453.351562 129.886719 442.261719 138.175781 421.222656 C 140.789062 414.589844 147.003906 398.839844 151.992188 386.222656 C 156.976562 373.605469 161.769531 361.300781 162.640625 358.871094 C 165.082031 352.058594 165.710938 350.832031 170.335938 343.886719 C 175.066406 336.785156 183.921875 327.019531 191.054688 321.050781 C 197.484375 315.664062 201.761719 311.402344 208.859375 303.304688 C 212.253906 299.433594 217.679688 293.480469 220.914062 290.074219 C 229.21875 281.332031 233.097656 275.9375 232.859375 273.457031 C 232.699219 271.761719 232.398438 271.457031 230.441406 270.972656 C 228.535156 270.5 227.738281 270.652344 224.964844 272.011719 C 219.058594 274.910156 209.242188 282.039062 202.675781 288.210938 C 201.703125 289.121094 192.707031 296.710938 182.675781 305.074219 C 172.648438 313.4375 161.660156 322.699219 158.253906 325.660156 C 154.851562 328.617188 151.492188 331.347656 150.792969 331.722656 C 149.410156 332.464844 146.570312 332.621094 145.058594 332.039062 C 142.457031 331.039062 141.703125 325.40625 143.21875 318.285156 C 144.21875 313.582031 152.246094 292.835938 156.738281 283.335938 C 160.03125 276.375 160.050781 276.304688 159.453125 273.082031 C 158.6875 268.945312 158.679688 258.78125 159.4375 254.789062 C 160.640625 248.4375 165.335938 241.597656 168.257812 241.941406 C 169.535156 242.089844 169.914062 242.679688 171.011719 246.230469 C 171.714844 248.496094 172.511719 251.253906 172.785156 252.363281 L 173.285156 254.378906 L 178.855469 246.480469 C 188.703125 232.511719 191.695312 227.710938 196.171875 218.648438 C 203.082031 204.671875 205.015625 196 201.351562 195.460938 C 197.976562 194.964844 193.195312 199.3125 183.046875 212.113281 C 179.96875 215.996094 173.707031 223.675781 169.132812 229.175781 C 158.40625 242.066406 140.667969 264.464844 137.773438 268.765625 C 136.539062 270.605469 134.199219 274.496094 132.582031 277.40625 C 129.953125 282.136719 128.496094 285.152344 121.953125 299.46875 C 120.988281 301.574219 119.996094 303.957031 119.746094 304.761719 C 119.492188 305.570312 117.605469 309.574219 115.546875 313.664062 C 112.476562 319.765625 111.527344 321.167969 110.261719 321.488281 C 109.414062 321.699219 108.5625 321.714844 108.367188 321.523438 C 107.074219 320.230469 106.558594 285.015625 107.667969 273.46875 L 108.359375 266.230469 L 105.652344 255.347656 C 104.160156 249.363281 102.695312 242.085938 102.390625 239.171875 C 101.226562 227.988281 105.183594 219.476562 111.558594 219.46875 C 113.699219 219.46875 114.851562 220.589844 116.355469 224.128906 L 117.457031 226.71875 L 119.675781 218.046875 C 120.894531 213.28125 123.230469 205.09375 124.863281 199.863281 C 130.101562 183.097656 133.601562 169.457031 133.964844 164.417969 C 134.296875 159.785156 134.257812 159.609375 132.597656 157.757812 C 129.65625 154.464844 127.328125 155.976562 122.214844 164.511719 C 117.757812 171.949219 109.207031 191.945312 103.234375 208.878906 C 100.898438 215.511719 97.117188 226.230469 94.832031 232.699219 C 92.546875 239.171875 89.882812 247.246094 88.910156 250.640625 C 86.613281 258.679688 82.628906 276.707031 81.824219 282.699219 C 81.476562 285.285156 80.949219 288.199219 80.648438 289.171875 C 80.347656 290.140625 78.984375 297.761719 77.617188 306.105469 C 75.132812 321.246094 74.351562 323.984375 72.921875 322.574219 C 72.140625 321.808594 72.542969 318.945312 77.144531 292.308594 C 79.269531 279.996094 79.445312 278.121094 79.445312 267.867188 L 79.445312 256.761719 L 72.886719 243.851562 C 69.277344 236.75 66 230.457031 65.601562 229.878906 C 64.980469 228.960938 64.597656 229.6875 62.765625 235.261719 C 59.683594 244.617188 58.585938 253.039062 56.773438 281.230469 C 56.175781 290.5625 55.253906 299.136719 53.488281 311.792969 C 52.519531 318.734375 46.539062 361.546875 45.03125 370.929688 C 42.003906 389.753906 38.816406 406.441406 35.703125 419.816406 C 34.582031 424.632812 32.960938 432.28125 32.105469 436.8125 C 31.242188 441.339844 29.386719 450.472656 27.976562 457.105469 C 26.570312 463.738281 25.265625 470.488281 25.082031 472.101562 C 24.902344 473.722656 24.445312 477.03125 24.0625 479.457031 C 23.085938 485.691406 23.144531 495.351562 24.320312 520.472656 C 25.324219 542.042969 27.449219 571.554688 30.324219 603.863281 C 31.128906 612.921875 32.585938 630.65625 33.570312 643.273438 C 35.820312 672.191406 36.714844 681.917969 38.875 700.625 C 42.550781 732.523438 45.996094 761.160156 46.820312 766.648438 C 47.292969 769.800781 47.679688 772.78125 47.679688 773.265625 C 47.679688 774.503906 45.476562 774.378906 45.097656 773.125 C 44.515625 771.191406 42.386719 754.46875 38.597656 722.089844 C 34.136719 684.007812 33.550781 678.148438 31.214844 648.273438 C 30.238281 635.820312 28.652344 616.492188 27.683594 605.335938 C 25.214844 576.78125 23.101562 549.21875 22.425781 536.804688 C 21.183594 513.765625 20.457031 491.148438 20.796875 485.882812 C 21.480469 475.199219 25.882812 451.273438 33.328125 417.785156 C 38.441406 394.78125 38.355469 395.785156 35.617188 390.828125 C 34.394531 388.621094 32.136719 385.089844 30.597656 382.988281 C 29.058594 380.886719 24.171875 373.34375 19.738281 366.226562 C 15.308594 359.109375 10.277344 351.433594 8.554688 349.167969 C -1.167969 336.355469 -2.84375 322.308594 4.742188 317.203125 " fill-opacity="1" fill-rule="nonzero"/></g></svg>