<svg xmlns="http://www.w3.org/2000/svg" xmlns:xlink="http://www.w3.org/1999/xlink" width="800" zoomAndPan="magnify" viewBox="0 0 600 374.999991" height="500" preserveAspectRatio="xMidYMid meet" version="1.0"><defs><clipPath id="eeb7dd6d8d"><path d="M 0.0117188 103.054688 L 141.75 103.054688 L 141.75 375 L 0.0117188 375 Z M 0.0117188 103.054688 " clip-rule="nonzero"/></clipPath></defs><g clip-path="url(#eeb7dd6d8d)"><path fill="#000000" d="M 5.125 191.65625 C 5.535156 192.121094 6.757812 193.9375 7.84375 195.691406 C 12.386719 203.023438 13.566406 204.859375 14.972656 206.796875 C 15.789062 207.917969 16.714844 209.300781 17.035156 209.871094 C 17.445312 210.605469 17.660156 210.789062 17.769531 210.503906 C 17.851562 210.285156 18.574219 206.132812 19.375 201.28125 L 20.832031 192.460938 L 18.242188 189.832031 C 13.269531 184.777344 7.433594 179.445312 6.332031 178.941406 C 4.980469 178.328125 3.542969 178.289062 2.746094 178.847656 C 0.613281 180.339844 0.925781 185.105469 3.425781 189.230469 C 3.953125 190.097656 4.71875 191.1875 5.125 191.65625 Z M 24.375 162.453125 C 24.664062 161.222656 25.214844 151.757812 25.039062 151.0625 C 24.945312 150.6875 23.648438 149.335938 21.96875 147.863281 C 20.367188 146.464844 18.355469 144.496094 17.496094 143.496094 C 14.65625 140.183594 10.613281 136.316406 9.371094 135.726562 C 7.839844 135 7.621094 134.996094 7.113281 135.722656 C 6.523438 136.566406 6.589844 137.261719 7.535156 140.03125 C 9.117188 144.671875 11.050781 147.730469 14.996094 151.832031 C 16.410156 153.304688 18.210938 155.46875 19 156.644531 C 19.789062 157.820312 21.28125 159.773438 22.320312 160.984375 C 24.160156 163.128906 24.210938 163.167969 24.375 162.453125 Z M 35.476562 146.007812 L 37.921875 150.945312 L 38.320312 149.519531 C 38.539062 148.734375 38.867188 147.429688 39.042969 146.621094 C 39.222656 145.8125 39.511719 144.910156 39.691406 144.617188 C 39.867188 144.324219 40.347656 143.140625 40.761719 141.992188 L 41.515625 139.90625 L 38.179688 134.910156 C 36.34375 132.164062 34.261719 129.011719 33.550781 127.910156 C 32.082031 125.640625 30.640625 123.722656 29.878906 123.035156 C 29.277344 122.492188 28.332031 122.421875 27.867188 122.886719 C 27.421875 123.332031 27.464844 126.410156 27.949219 128.707031 C 28.523438 131.4375 30.433594 135.832031 35.476562 146.007812 Z M 37.195312 153.636719 C 37.214844 154.738281 37.222656 154.75 37.460938 153.972656 C 37.59375 153.53125 37.648438 153.019531 37.578125 152.835938 C 37.335938 152.179688 37.171875 152.519531 37.195312 153.636719 Z M 40.515625 127.101562 C 42.347656 121.375 44.085938 114.144531 44.203125 111.761719 C 44.296875 109.910156 44.238281 109.566406 43.746094 108.992188 C 42.617188 107.679688 41.785156 107.730469 40.546875 109.207031 C 38.984375 111.066406 35.582031 118.257812 34.09375 122.84375 L 33.355469 125.128906 L 35.96875 129.050781 C 37.40625 131.210938 38.671875 132.917969 38.78125 132.851562 C 38.890625 132.785156 39.066406 132.273438 39.167969 131.722656 C 39.273438 131.167969 39.878906 129.089844 40.515625 127.101562 Z M 53.347656 140.742188 C 53.015625 139.933594 52.53125 138.546875 52.277344 137.667969 C 51.671875 135.574219 51.148438 134.328125 50.882812 134.328125 C 50.765625 134.328125 50.269531 134.574219 49.78125 134.871094 C 47.59375 136.203125 47.121094 140.433594 48.496094 146.355469 C 48.890625 148.046875 49.460938 150.511719 49.761719 151.832031 C 50.066406 153.15625 50.464844 154.480469 50.652344 154.773438 C 50.839844 155.066406 51.199219 156.03125 51.453125 156.914062 C 51.703125 157.796875 52.703125 160.230469 53.671875 162.328125 L 55.4375 166.136719 L 57.925781 161.3125 L 60.417969 156.488281 L 58.453125 152.558594 C 57.375 150.394531 55.921875 147.183594 55.222656 145.417969 C 54.527344 143.65625 53.683594 141.550781 53.347656 140.742188 Z M 49.878906 172.113281 L 50.082031 178.027344 L 52.226562 173.617188 C 54.972656 167.972656 54.972656 167.972656 52.746094 163.390625 C 51.835938 161.515625 50.945312 159.503906 50.773438 158.921875 C 50.597656 158.339844 50.367188 157.917969 50.261719 157.984375 C 50.15625 158.050781 49.980469 159.925781 49.875 162.148438 C 49.769531 164.375 49.769531 168.859375 49.878906 172.113281 Z M 77.1875 148.492188 C 76.960938 147.242188 76.636719 145.863281 76.46875 145.421875 L 76.160156 144.625 L 75.644531 145.289062 C 75.359375 145.65625 74.796875 146.613281 74.398438 147.421875 C 73.734375 148.761719 73.660156 149.21875 73.570312 152.527344 C 73.46875 156.300781 73.710938 158.125 74.875 162.390625 C 75.703125 165.4375 75.816406 167.601562 75.257812 169.914062 C 75 170.996094 74.699219 172 74.597656 172.148438 C 74.277344 172.597656 73.144531 178.140625 73.332031 178.328125 C 73.566406 178.5625 74.679688 177.6875 78.332031 174.371094 C 80.515625 172.390625 81.457031 171.355469 81.574219 170.796875 C 81.667969 170.363281 81.761719 168.644531 81.777344 166.976562 C 81.808594 163.949219 81.808594 163.941406 80.222656 159.226562 C 78.304688 153.519531 77.722656 151.46875 77.1875 148.492188 Z M 70.113281 167.820312 C 68.710938 171.195312 68.652344 171.871094 69.257812 177.960938 C 69.429688 179.691406 69.5 181.285156 69.414062 181.503906 C 69.128906 182.246094 70.007812 181.921875 70.667969 181.035156 C 71.457031 179.984375 71.613281 179.476562 72.863281 173.960938 C 74.21875 167.976562 74.417969 165.984375 73.882812 163.613281 C 73.648438 162.574219 73.394531 161.613281 73.316406 161.480469 C 73.132812 161.171875 71.714844 163.976562 70.113281 167.820312 Z M 68.257812 182.5625 C 68.230469 182.273438 68.128906 180.382812 68.03125 178.363281 C 67.933594 176.339844 67.75 174.6875 67.625 174.6875 C 67.5 174.6875 67.105469 175.621094 66.746094 176.757812 C 66.386719 177.898438 66.007812 179.617188 65.90625 180.574219 C 65.746094 182.085938 65.792969 182.40625 66.253906 182.972656 C 66.714844 183.546875 66.882812 183.59375 67.546875 183.359375 C 68.070312 183.171875 68.292969 182.921875 68.257812 182.5625 Z M 72.359375 228.410156 C 72.527344 228.578125 77.945312 229.34375 82.097656 229.78125 C 84.757812 230.0625 85.625 230.046875 88.261719 229.667969 C 89.949219 229.429688 91.890625 228.980469 92.582031 228.675781 C 93.269531 228.371094 96.207031 227.519531 99.109375 226.78125 C 102.007812 226.042969 104.410156 225.410156 104.445312 225.378906 C 104.546875 225.277344 97.578125 223.621094 95.976562 223.363281 C 93.5625 222.980469 93.152344 223.027344 90.027344 224.035156 C 87.210938 224.949219 86.90625 224.992188 85.019531 224.785156 C 81.558594 224.410156 79.15625 224.554688 76.121094 225.332031 C 74.558594 225.730469 73.164062 225.984375 73.023438 225.894531 C 72.757812 225.730469 72.117188 228.164062 72.359375 228.410156 Z M 71.9375 229.871094 C 71.8125 229.949219 71.632812 230.441406 71.53125 230.96875 C 71.433594 231.496094 71.285156 232.097656 71.207031 232.308594 C 71.121094 232.53125 71.21875 232.691406 71.445312 232.691406 C 71.65625 232.691406 73.203125 233.605469 74.882812 234.726562 C 78.417969 237.089844 81.800781 238.773438 83.457031 238.996094 C 85.054688 239.210938 89.246094 238.707031 92.195312 237.941406 C 95.503906 237.078125 96.949219 236.074219 101.394531 231.535156 C 103.417969 229.46875 105.582031 227.441406 106.203125 227.027344 C 107.566406 226.121094 107.191406 226.078125 104.128906 226.773438 C 100.382812 227.628906 94.828125 229.164062 93.035156 229.835938 C 90.59375 230.753906 85.886719 231.453125 83.484375 231.253906 C 82.421875 231.167969 79.4375 230.789062 76.859375 230.414062 C 74.277344 230.039062 72.0625 229.796875 71.9375 229.871094 Z M 2.15625 177.671875 C 2.929688 177.148438 3.324219 177.066406 4.457031 177.179688 C 6.765625 177.40625 8.246094 178.402344 13.042969 182.945312 C 15.507812 185.277344 18.042969 187.804688 18.675781 188.554688 C 19.308594 189.308594 20.542969 190.566406 20.597656 190.457031 C 20.867188 189.921875 22.726562 178.964844 23.914062 168.621094 L 24.289062 165.359375 L 23.53125 164.476562 C 20.777344 161.28125 19.015625 159.058594 17.84375 157.3125 C 17.105469 156.210938 15.453125 154.226562 14.171875 152.902344 C 9.710938 148.289062 7.023438 143.949219 5.890625 139.503906 C 5.230469 136.9375 5.230469 136.019531 5.871094 134.960938 C 7.160156 132.851562 10.265625 133.863281 13.835938 137.558594 C 15.027344 138.796875 16.851562 140.828125 17.882812 142.078125 C 18.914062 143.328125 21.023438 145.457031 22.570312 146.808594 L 25.382812 149.269531 L 25.550781 148.011719 C 25.988281 144.761719 26.574219 142.214844 27.570312 139.21875 L 28.652344 135.960938 L 27.695312 133.410156 C 25.902344 128.628906 25.421875 124.359375 26.480469 122.625 C 27.550781 120.867188 29.519531 120.847656 31.195312 122.570312 C 31.761719 123.15625 32.285156 123.632812 32.359375 123.632812 C 32.433594 123.628906 32.71875 122.941406 32.992188 122.09375 C 33.269531 121.25 34.246094 118.800781 35.167969 116.652344 C 38.089844 109.828125 40.242188 106.796875 42.171875 106.796875 C 43.351562 106.796875 44.441406 107.433594 45.078125 108.503906 C 45.453125 109.125 45.578125 109.871094 45.582031 111.472656 C 45.585938 113.863281 45.328125 115.03125 42.917969 123.5 C 40.667969 131.40625 40.011719 134.160156 40.199219 134.90625 C 40.285156 135.246094 40.714844 135.949219 41.148438 136.464844 C 41.847656 137.289062 41.988281 137.355469 42.324219 136.996094 C 42.535156 136.777344 43.820312 133.410156 45.183594 129.515625 C 47.871094 121.820312 50.589844 115.21875 53.511719 109.289062 C 54.984375 106.308594 55.660156 105.238281 56.691406 104.277344 C 57.785156 103.25 58.167969 103.054688 59.054688 103.054688 C 59.882812 103.054688 60.296875 103.234375 60.933594 103.871094 C 61.996094 104.933594 62.398438 106.480469 62.179688 108.667969 C 61.996094 110.535156 60.144531 117.742188 58.683594 122.296875 C 57.269531 126.699219 56.523438 129.292969 55.238281 134.269531 L 54.046875 138.890625 L 54.535156 140.285156 C 54.800781 141.050781 55.285156 142.277344 55.609375 143.011719 C 55.933594 143.75 56.503906 145.191406 56.875 146.222656 C 58.136719 149.703125 61.019531 155.023438 61.550781 154.84375 C 61.679688 154.800781 63.195312 152.929688 64.914062 150.6875 C 70.355469 143.597656 77.359375 134.75 78.078125 134.058594 C 78.460938 133.691406 80.300781 131.464844 82.167969 129.113281 C 87.421875 122.503906 89.179688 120.960938 91.472656 120.960938 C 92.722656 120.960938 93.347656 121.6875 93.503906 123.316406 C 93.699219 125.335938 92.71875 128.359375 90.246094 133.390625 C 88.0625 137.835938 86.816406 139.828125 81.65625 147.15625 C 78.621094 151.464844 78.660156 150.570312 81.191406 158.25 L 82.957031 163.59375 L 82.929688 167.140625 C 82.898438 170.585938 82.914062 170.679688 83.421875 170.40625 C 83.710938 170.25 83.945312 170.019531 83.945312 169.894531 C 83.945312 169.289062 97.289062 158.453125 100.199219 156.691406 C 104.265625 154.234375 106.875 154.777344 107.003906 158.109375 C 107.054688 159.457031 105.144531 162.226562 101.3125 166.363281 C 99.589844 168.222656 97.839844 170.164062 97.421875 170.679688 C 96.007812 172.417969 90.25 178.277344 86.609375 181.675781 C 84.617188 183.535156 82.667969 185.519531 82.273438 186.085938 C 81.851562 186.699219 81.394531 187.925781 81.148438 189.121094 C 80.921875 190.222656 80.140625 193.472656 79.410156 196.339844 C 77.992188 201.917969 76.617188 208.195312 76.339844 210.371094 C 76.3125 210.570312 76.207031 211.105469 76.046875 211.855469 C 76.738281 211.292969 79.253906 211.640625 81.300781 212.609375 C 84.222656 213.996094 86.542969 213.699219 88.496094 211.691406 C 89.15625 211.015625 89.992188 210.304688 90.363281 210.113281 C 91.429688 209.558594 93.070312 209.433594 94.421875 209.804688 C 95.90625 210.210938 96.511719 210.652344 96.511719 211.339844 C 96.511719 211.972656 96.335938 211.96875 95.039062 211.308594 C 92.972656 210.253906 90.59375 210.816406 89.273438 212.667969 C 88.324219 214 86.78125 214.636719 84.480469 214.636719 C 82.75 214.636719 82.230469 214.515625 80.683594 213.75 C 79.328125 213.082031 78.53125 212.863281 77.40625 212.851562 C 76.605469 212.847656 76.109375 212.78125 75.878906 212.636719 C 75.0625 216.394531 73.429688 223.429688 73.117188 224.414062 C 73.007812 224.757812 73.492188 224.703125 75.996094 224.070312 C 79.203125 223.257812 81.40625 223.109375 84.882812 223.457031 C 86.875 223.652344 87.207031 223.609375 89.695312 222.804688 C 92.140625 222.015625 92.570312 221.953125 94.773438 222.089844 C 96.207031 222.179688 98.902344 222.664062 101.453125 223.292969 C 103.804688 223.875 106.574219 224.433594 107.601562 224.535156 C 109.621094 224.738281 110.140625 224.992188 110.140625 225.769531 C 110.140625 226.113281 109.625 226.523438 108.472656 227.097656 C 107.148438 227.753906 105.929688 228.808594 102.65625 232.121094 C 97.578125 237.257812 96.253906 238.175781 92.5 239.167969 C 89.085938 240.066406 84.382812 240.542969 82.667969 240.15625 C 80.785156 239.734375 77.960938 238.296875 74.34375 235.925781 C 72.519531 234.726562 70.933594 233.839844 70.824219 233.953125 C 70.46875 234.328125 68.78125 241.574219 68.015625 246.035156 L 67.261719 250.421875 L 69.175781 252.191406 C 72.828125 255.566406 78.582031 258.820312 82.210938 259.566406 C 83.386719 259.804688 86.089844 260.066406 88.222656 260.148438 C 92.042969 260.289062 92.136719 260.277344 94.640625 259.441406 C 100.15625 257.601562 104.089844 255.199219 112.496094 248.53125 C 115.847656 245.871094 118.359375 243.242188 124.257812 236.21875 C 127.835938 231.960938 128.597656 230.859375 131.707031 225.441406 C 135.0625 219.605469 136.894531 213.773438 137.921875 205.691406 C 138.207031 203.414062 138.808594 199.265625 139.25 196.472656 C 139.691406 193.679688 140.199219 190.035156 140.375 188.371094 C 140.679688 185.554688 140.738281 185.359375 141.257812 185.433594 C 141.765625 185.503906 141.808594 185.664062 141.734375 187.117188 C 141.6875 188 141.289062 191.1875 140.851562 194.199219 C 140.410156 197.214844 139.816406 201.363281 139.53125 203.421875 C 138.605469 210.097656 138.238281 211.964844 137.003906 216.261719 C 135.6875 220.859375 134.675781 223.066406 131.390625 228.546875 C 128.894531 232.714844 128.246094 233.570312 122.910156 239.773438 C 117.558594 245.996094 115.359375 248.070312 109.308594 252.609375 C 103.742188 256.789062 101.53125 258.140625 97.742188 259.6875 C 93.421875 261.453125 92.367188 261.644531 88.089844 261.449219 C 81.894531 261.164062 77.882812 260.058594 74.613281 257.730469 C 73.941406 257.253906 72.726562 256.457031 71.917969 255.96875 C 71.109375 255.476562 69.675781 254.402344 68.734375 253.578125 L 67.019531 252.078125 L 67.191406 254.109375 C 67.449219 257.183594 69.042969 263.429688 70.59375 267.453125 C 71.351562 269.429688 73.996094 275.257812 76.464844 280.402344 C 78.9375 285.546875 81.582031 291.257812 82.34375 293.09375 C 83.109375 294.925781 85.175781 299.617188 86.941406 303.515625 C 88.703125 307.414062 90.742188 312.035156 91.472656 313.78125 C 92.203125 315.527344 93.351562 318.171875 94.019531 319.660156 C 95.265625 322.414062 98.40625 329.796875 103.242188 341.34375 C 104.722656 344.871094 106.6875 349.804688 107.613281 352.304688 C 108.539062 354.804688 110.160156 359.074219 111.214844 361.792969 C 113.472656 367.625 116.023438 375.015625 116.023438 375.75 C 116.023438 376.113281 115.867188 376.238281 115.488281 376.179688 C 115.054688 376.109375 114.636719 375.171875 113.253906 371.148438 C 112.320312 368.425781 110.800781 364.277344 109.878906 361.925781 C 108.957031 359.574219 107.625 356.074219 106.914062 354.148438 C 104.457031 347.476562 98.726562 333.640625 93.308594 321.296875 C 92.015625 318.359375 90.535156 314.921875 90.011719 313.660156 C 89.492188 312.402344 87.660156 308.25 85.9375 304.4375 C 84.21875 300.628906 81.878906 295.34375 80.738281 292.699219 C 79.601562 290.050781 76.917969 284.277344 74.78125 279.867188 C 70.183594 270.375 68.222656 265.394531 66.953125 259.945312 C 65.714844 254.632812 65.65625 251.777344 66.671875 246.1875 C 67.515625 241.542969 68.171875 238.601562 69.113281 235.230469 C 69.484375 233.90625 70.386719 230.175781 71.121094 226.941406 C 71.855469 223.710938 72.804688 219.78125 73.226562 218.214844 C 73.652344 216.648438 74.324219 213.703125 74.71875 211.664062 C 76.039062 204.847656 77.300781 199.265625 78.625 194.378906 C 80.101562 188.921875 80.179688 188.410156 79.378906 189.386719 C 77.511719 191.667969 75.71875 194.8125 74.878906 197.273438 C 74.378906 198.742188 72.496094 203.675781 70.699219 208.234375 C 68.90625 212.789062 66.445312 219.15625 65.238281 222.375 C 62.425781 229.882812 59.335938 236.757812 57.34375 239.9375 C 56.484375 241.316406 54.253906 244.609375 52.394531 247.257812 C 46.496094 255.652344 44.117188 259.992188 43.390625 263.6875 C 42.972656 265.804688 42.980469 266.085938 43.671875 272.3125 C 44.464844 279.476562 44.421875 279.304688 51.746094 303.921875 C 53.277344 309.066406 55.257812 315.925781 56.152344 319.160156 C 60.796875 336.019531 66.667969 355.785156 70.800781 368.476562 C 78.550781 392.253906 79.472656 395.242188 79.167969 395.542969 C 78.433594 396.277344 78.421875 396.234375 69.808594 369.410156 C 64.933594 354.222656 59.65625 336.613281 56.125 323.753906 C 54.800781 318.929688 52.921875 312.316406 51.949219 309.054688 C 50.976562 305.792969 49.125 299.511719 47.832031 295.101562 C 46.542969 290.691406 45.480469 287.242188 45.472656 287.433594 C 45.464844 287.625 46.847656 296.167969 48.546875 306.410156 C 51.734375 325.617188 53.828125 337.152344 54.277344 337.949219 C 54.417969 338.199219 54.890625 340.207031 55.332031 342.414062 C 55.769531 344.617188 56.5 348.285156 56.953125 350.566406 C 58.789062 359.792969 61.722656 371.433594 65.152344 383.121094 C 65.835938 385.445312 66.035156 386.492188 65.835938 386.695312 C 65.679688 386.851562 65.421875 386.898438 65.269531 386.804688 C 64.863281 386.554688 63.714844 382.820312 61.269531 373.820312 C 58.0625 362.019531 57.191406 358.40625 54.710938 346.558594 C 51.292969 330.226562 50.808594 327.621094 47.488281 307.53125 C 44.003906 286.457031 43.347656 282.015625 42.773438 275.722656 C 42.621094 274.03125 42.363281 271.929688 42.199219 271.046875 C 40.824219 263.648438 42.550781 258.921875 50.941406 247.121094 C 56.328125 239.539062 59.023438 234.5 62.789062 224.9375 C 63.976562 221.925781 66.800781 214.769531 69.066406 209.035156 C 71.332031 203.300781 73.511719 197.707031 73.90625 196.605469 C 75.015625 193.507812 75.300781 192.953125 77.402344 189.796875 C 79.550781 186.566406 83.578125 182.132812 86.816406 179.417969 C 89.738281 176.972656 91.683594 175.035156 94.910156 171.355469 C 96.449219 169.59375 98.917969 166.890625 100.386719 165.339844 C 104.160156 161.371094 105.925781 158.917969 105.816406 157.789062 C 105.742188 157.019531 105.605469 156.882812 104.714844 156.660156 C 103.851562 156.449219 103.488281 156.515625 102.226562 157.132812 C 99.542969 158.453125 95.082031 161.691406 92.097656 164.496094 C 91.65625 164.910156 87.566406 168.359375 83.011719 172.15625 C 78.453125 175.957031 73.460938 180.167969 71.914062 181.511719 C 70.367188 182.859375 68.839844 184.097656 68.523438 184.269531 C 67.894531 184.605469 66.605469 184.675781 65.917969 184.410156 C 64.734375 183.957031 64.390625 181.398438 65.082031 178.164062 C 65.535156 176.023438 69.183594 166.597656 71.222656 162.28125 C 72.71875 159.117188 72.730469 159.085938 72.457031 157.621094 C 72.109375 155.742188 72.105469 151.121094 72.449219 149.308594 C 73 146.421875 75.132812 143.3125 76.460938 143.46875 C 77.039062 143.535156 77.210938 143.804688 77.710938 145.417969 C 78.027344 146.449219 78.390625 147.703125 78.515625 148.207031 L 78.742188 149.121094 L 81.273438 145.53125 C 85.75 139.183594 87.109375 137.003906 89.144531 132.882812 C 92.285156 126.535156 93.164062 122.59375 91.496094 122.347656 C 89.960938 122.125 87.789062 124.097656 83.179688 129.917969 C 81.78125 131.679688 78.933594 135.167969 76.855469 137.667969 C 71.984375 143.527344 63.921875 153.707031 62.605469 155.660156 C 62.046875 156.496094 60.984375 158.261719 60.246094 159.585938 C 59.050781 161.734375 58.390625 163.105469 55.417969 169.609375 C 54.980469 170.566406 54.527344 171.652344 54.414062 172.015625 C 54.300781 172.382812 53.441406 174.203125 52.507812 176.0625 C 51.109375 178.832031 50.679688 179.472656 50.105469 179.617188 C 49.71875 179.710938 49.332031 179.71875 49.242188 179.632812 C 48.65625 179.042969 48.421875 163.042969 48.925781 157.796875 L 49.242188 154.507812 L 48.011719 149.5625 C 47.332031 146.839844 46.664062 143.535156 46.527344 142.210938 C 46 137.128906 47.796875 133.261719 50.695312 133.257812 C 51.667969 133.257812 52.191406 133.765625 52.875 135.375 L 53.375 136.554688 L 54.382812 132.613281 C 54.9375 130.445312 55.996094 126.726562 56.742188 124.347656 C 59.121094 116.730469 60.710938 110.53125 60.875 108.242188 C 61.027344 106.136719 61.007812 106.054688 60.253906 105.214844 C 58.917969 103.71875 57.859375 104.40625 55.535156 108.285156 C 53.511719 111.664062 49.625 120.75 46.910156 128.445312 C 45.847656 131.460938 44.132812 136.332031 43.09375 139.269531 C 42.054688 142.210938 40.84375 145.878906 40.402344 147.421875 C 39.359375 151.074219 37.546875 159.265625 37.179688 161.992188 C 37.023438 163.167969 36.785156 164.488281 36.648438 164.929688 C 36.511719 165.371094 35.890625 168.835938 35.269531 172.625 C 34.140625 179.507812 33.785156 180.75 33.136719 180.109375 C 32.78125 179.761719 32.964844 178.460938 35.054688 166.355469 C 36.019531 160.761719 36.101562 159.910156 36.101562 155.25 L 36.101562 150.203125 L 33.121094 144.335938 C 31.480469 141.109375 29.992188 138.25 29.8125 137.988281 C 29.527344 137.570312 29.351562 137.902344 28.519531 140.433594 C 27.121094 144.6875 26.625 148.511719 25.800781 161.324219 C 25.527344 165.5625 25.109375 169.460938 24.304688 175.210938 C 23.867188 178.367188 21.148438 197.820312 20.464844 202.085938 C 19.085938 210.636719 17.640625 218.21875 16.222656 224.296875 C 15.714844 226.488281 14.976562 229.964844 14.589844 232.023438 C 14.199219 234.078125 13.355469 238.230469 12.714844 241.242188 C 12.074219 244.257812 11.480469 247.324219 11.398438 248.058594 C 11.316406 248.792969 11.109375 250.296875 10.933594 251.398438 C 10.488281 254.234375 10.519531 258.625 11.050781 270.039062 C 11.507812 279.839844 12.472656 293.253906 13.777344 307.933594 C 14.144531 312.050781 14.808594 320.105469 15.253906 325.84375 C 16.277344 338.984375 16.683594 343.402344 17.664062 351.902344 C 19.335938 366.398438 20.902344 379.410156 21.277344 381.90625 C 21.492188 383.335938 21.667969 384.691406 21.667969 384.910156 C 21.667969 385.472656 20.664062 385.417969 20.492188 384.847656 C 20.230469 383.96875 19.261719 376.371094 17.539062 361.65625 C 15.511719 344.351562 15.246094 341.6875 14.183594 328.113281 C 13.742188 322.453125 13.019531 313.671875 12.578125 308.601562 C 11.457031 295.625 10.496094 283.101562 10.191406 277.460938 C 9.625 266.992188 9.296875 256.710938 9.449219 254.320312 C 9.761719 249.464844 11.761719 238.59375 15.144531 223.375 C 17.46875 212.921875 17.429688 213.378906 16.183594 211.125 C 15.628906 210.125 14.605469 208.519531 13.902344 207.5625 C 13.203125 206.609375 10.984375 203.179688 8.96875 199.945312 C 6.957031 196.710938 4.667969 193.222656 3.886719 192.195312 C -0.53125 186.375 -1.292969 179.988281 2.15625 177.671875 " fill-opacity="1" fill-rule="nonzero"/></g></svg>