<svg xmlns="http://www.w3.org/2000/svg" xmlns:xlink="http://www.w3.org/1999/xlink" width="800" zoomAndPan="magnify" viewBox="0 0 600 374.999991" height="500" preserveAspectRatio="xMidYMid meet" version="1.0"><defs><clipPath id="839a165123"><path d="M 0 59 L 498 59 L 498 374.730469 L 0 374.730469 Z M 0 59 " clip-rule="nonzero"/></clipPath></defs><path fill="#e6726a" d="M 156.78125 160.445312 C 162.675781 151.457031 164.753906 148.8125 170.214844 143.351562 C 174.835938 138.730469 179.375 135.453125 184.691406 132.90625 C 187.464844 131.578125 187.992188 131.433594 188.628906 131.828125 C 189.234375 132.207031 189.453125 132.1875 189.914062 131.730469 C 190.371094 131.269531 190.386719 131.074219 190.007812 130.613281 C 189.164062 129.601562 187.066406 129.949219 183.476562 131.699219 C 178.320312 134.207031 174.371094 136.960938 170.363281 140.832031 C 164.417969 146.578125 161.585938 150.066406 156.0625 158.457031 C 153.179688 162.835938 150.191406 167.246094 149.417969 168.261719 C 147.851562 170.320312 147.6875 170.941406 148.714844 170.941406 C 149.683594 170.941406 151.15625 169.023438 156.78125 160.445312 " fill-opacity="1" fill-rule="nonzero"/><g clip-path="url(#839a165123)"><path fill="#e6726a" d="M 422.777344 330.683594 L 419.460938 329.398438 L 419.222656 326.609375 C 419.089844 325.078125 418.902344 323.535156 418.804688 323.183594 C 418.675781 322.726562 419.292969 323 420.914062 324.125 C 422.171875 324.996094 424.285156 326.304688 425.613281 327.039062 C 428.945312 328.882812 429.625 329.894531 428.40625 331.199219 C 427.433594 332.246094 426.621094 332.167969 422.777344 330.683594 Z M 417.050781 338.609375 C 415.511719 337.585938 415.054688 337.074219 415.035156 336.34375 C 414.957031 333.421875 415.148438 328.90625 415.449219 326.535156 C 415.636719 325.042969 415.90625 321.703125 416.050781 319.117188 L 416.308594 314.414062 L 416.566406 318.574219 C 416.707031 320.863281 417.167969 325.75 417.589844 329.429688 C 418.011719 333.113281 418.503906 336.777344 418.6875 337.574219 C 419.238281 339.941406 419.140625 339.996094 417.050781 338.609375 Z M 414.109375 322.011719 C 413.804688 325.398438 413.417969 331.234375 413.25 334.984375 C 413.078125 338.734375 412.851562 341.890625 412.746094 342 C 412.230469 342.511719 410.535156 340.699219 409.507812 338.539062 L 408.367188 336.125 L 408.347656 329.066406 L 408.332031 322.011719 L 410.652344 317.128906 C 411.925781 314.441406 413.480469 310.675781 414.105469 308.757812 C 414.730469 306.84375 415.277344 305.308594 415.324219 305.34375 C 415.371094 305.382812 415.238281 307.765625 415.03125 310.636719 C 414.828125 313.511719 414.410156 318.628906 414.109375 322.011719 Z M 402.484375 329.289062 C 401.09375 331.65625 399.605469 334.285156 399.179688 335.128906 C 397.914062 337.636719 396.605469 336.863281 396.605469 333.609375 C 396.605469 331.421875 399.648438 322.269531 401.816406 317.941406 C 403.371094 314.84375 403.574219 314.59375 404.574219 314.59375 C 405.746094 314.59375 407.101562 313.503906 407.101562 312.558594 C 407.101562 312.238281 406.542969 310.242188 405.859375 308.128906 C 405.179688 306.011719 403.777344 301.371094 402.742188 297.808594 C 400.964844 291.675781 400.703125 291.0625 397.742188 286.125 C 396.023438 283.257812 394.179688 280.226562 393.648438 279.390625 C 393.117188 278.550781 392.671875 277.578125 392.65625 277.21875 C 392.605469 276.132812 391.199219 273.703125 390.617188 273.703125 C 388.886719 273.703125 389.808594 276.375 393.867188 283.121094 C 398.339844 290.558594 399.664062 293.464844 401.09375 299.035156 C 401.78125 301.722656 403.015625 305.789062 403.835938 308.074219 C 405.175781 311.796875 405.269531 312.269531 404.75 312.648438 C 402.664062 314.171875 396.515625 307.484375 392.402344 299.214844 C 389.476562 293.34375 387.769531 291.421875 385.003906 290.890625 C 383.992188 290.695312 381.53125 289.359375 375.800781 285.902344 C 369.1875 281.914062 365.820312 279.765625 365.109375 279.097656 C 364.816406 278.820312 363.601562 277.78125 362.410156 276.789062 C 361.214844 275.796875 358.515625 273.207031 356.40625 271.027344 C 353.617188 268.152344 352.410156 267.132812 351.972656 267.300781 C 351.644531 267.429688 351.375 267.671875 351.375 267.84375 C 351.375 268.015625 353.613281 270.464844 356.351562 273.285156 C 362 279.101562 361.832031 279.894531 356.136719 274.304688 C 349.492188 267.785156 341.257812 257.945312 331.257812 244.578125 C 323.652344 234.410156 322.066406 232.128906 323.160156 232.910156 C 323.652344 233.261719 324.300781 233.65625 324.597656 233.785156 C 324.898438 233.910156 327.339844 235.515625 330.027344 237.347656 C 342.792969 246.042969 349.417969 249.476562 361.328125 253.5625 C 363.914062 254.449219 367.984375 255.9375 370.371094 256.871094 C 376.855469 259.40625 388.273438 263.449219 392.988281 264.878906 C 395.277344 265.570312 398.574219 266.8125 400.316406 267.632812 C 403.304688 269.039062 403.535156 269.230469 404.347656 270.964844 C 405.21875 272.816406 406.273438 276.304688 407.472656 281.304688 C 408.527344 285.691406 409.945312 291.25 411.4375 296.863281 C 412.207031 299.75 412.945312 303.179688 413.078125 304.488281 C 413.300781 306.675781 413.21875 307.113281 412.050781 309.917969 C 409.808594 315.304688 405.085938 324.867188 402.484375 329.289062 Z M 406.738281 333.328125 L 402.835938 331.890625 L 404.320312 329.304688 C 405.671875 326.953125 406.402344 325.863281 406.648438 325.828125 C 406.695312 325.816406 406.738281 327.503906 406.738281 329.570312 Z M 395.722656 327.984375 C 395.128906 327.984375 386.621094 323.273438 383.191406 321.046875 C 381.515625 319.957031 379.574219 318.714844 378.875 318.285156 C 378.179688 317.855469 377.730469 317.5 377.875 317.496094 C 378.023438 317.492188 380.875 318.453125 384.210938 319.628906 C 387.542969 320.804688 391.738281 322.203125 393.53125 322.734375 C 395.320312 323.269531 396.90625 323.816406 397.050781 323.953125 C 397.414062 324.300781 396.199219 327.984375 395.722656 327.984375 Z M 389.359375 306.972656 C 387.070312 305.632812 383.8125 303.511719 382.125 302.257812 C 379.421875 300.25 379.15625 299.957031 379.890625 299.777344 C 381.828125 299.3125 385.941406 299.957031 389.039062 301.214844 C 392.058594 302.4375 392.183594 302.535156 393.480469 304.722656 C 395.304688 307.804688 398.410156 311.386719 399.996094 312.242188 C 401.117188 312.84375 401.714844 313.507812 401.140625 313.507812 C 400.894531 313.507812 394.175781 309.78125 389.359375 306.972656 Z M 408.238281 273.957031 C 408.949219 274.367188 409.6875 275.292969 410.214844 276.425781 C 410.773438 277.636719 411.304688 280.042969 411.804688 283.660156 C 412.21875 286.644531 412.96875 291.5 413.476562 294.449219 C 413.984375 297.402344 414.695312 302.261719 414.609375 302.351562 C 414.429688 302.527344 413.582031 298.40625 410.5 286.1875 C 409.394531 281.808594 408.179688 277.195312 407.796875 275.929688 C 407.414062 274.664062 407.101562 273.554688 407.101562 273.464844 C 407.101562 273.375 407.609375 273.597656 408.238281 273.957031 Z M 140.699219 259.414062 C 134.910156 262.9375 112.617188 279.5 97.355469 291.621094 C 90.355469 297.179688 79.441406 305.460938 77.953125 306.34375 C 77.378906 306.683594 75.398438 307.96875 73.542969 309.203125 L 70.175781 311.441406 L 67.152344 310.847656 C 64.261719 310.28125 58.355469 307.992188 51.851562 304.917969 L 48.867188 303.507812 L 51.859375 300.9375 C 57.796875 295.839844 68.097656 284.453125 74.363281 276.058594 C 84.484375 262.5 109.585938 225.988281 111.152344 222.554688 L 111.621094 221.519531 L 112.289062 223.097656 C 112.65625 223.964844 114.285156 227.6875 115.914062 231.367188 C 119.207031 238.820312 121.335938 242.039062 125.5 245.859375 C 128.734375 248.828125 135.636719 253.410156 140.066406 255.527344 C 142.035156 256.472656 143.652344 257.324219 143.660156 257.425781 C 143.667969 257.523438 142.335938 258.417969 140.699219 259.414062 Z M 292.542969 267.707031 C 291.964844 267.566406 290.1875 266.980469 288.59375 266.40625 C 287 265.828125 285.292969 265.296875 284.792969 265.222656 C 283.523438 265.035156 271.570312 260.148438 257.835938 254.203125 C 254.054688 252.566406 250.496094 251.027344 249.929688 250.78125 C 248.902344 250.34375 248.933594 250.316406 254 247.507812 C 258.472656 245.019531 261.1875 243.742188 262.085938 243.6875 C 262.234375 243.679688 264.191406 245.089844 266.429688 246.824219 C 268.667969 248.558594 271.316406 250.699219 272.3125 251.578125 C 273.304688 252.460938 277.703125 255.875 282.082031 259.164062 C 293.546875 267.785156 293.832031 268.015625 292.542969 267.707031 Z M 308.828125 211.039062 C 308.167969 210.359375 285.105469 175.597656 279.84375 167.355469 L 275.4375 160.445312 L 283.28125 160.453125 C 287.597656 160.457031 293.082031 160.617188 295.46875 160.8125 C 303.308594 161.457031 309.542969 163.179688 313.644531 165.847656 C 316.058594 167.414062 320.136719 171.621094 321.863281 174.324219 C 325.050781 179.320312 328.679688 188.714844 328.65625 191.925781 C 328.632812 195.734375 327.03125 198.082031 321.878906 201.894531 C 320.421875 202.972656 316.996094 205.574219 314.261719 207.679688 C 310.1875 210.816406 309.203125 211.425781 308.828125 211.039062 Z M 496.71875 367.15625 C 495.921875 366.792969 480.644531 363.636719 475.375 362.75 C 465.570312 361.09375 456.542969 355.898438 439.003906 341.820312 C 434.953125 338.570312 431.003906 335.492188 430.226562 334.976562 C 429.449219 334.460938 428.8125 333.960938 428.8125 333.871094 C 428.8125 333.777344 429.300781 333.246094 429.898438 332.6875 C 431.464844 331.21875 431.28125 329.339844 429.367188 327.425781 C 428.824219 326.878906 423.191406 323.242188 420.796875 321.890625 C 418.496094 320.589844 418.476562 320.546875 418.136719 315.859375 C 417.824219 311.558594 416.851562 304.613281 414.886719 292.703125 C 414 287.328125 413.1875 282.117188 413.082031 281.125 C 412.558594 276.289062 411.519531 274.273438 408.421875 272.097656 C 407.273438 271.289062 406.085938 270.113281 405.78125 269.480469 C 405.011719 267.886719 404.464844 267.484375 400.949219 265.910156 C 398.101562 264.640625 378.234375 257.582031 376.464844 257.21875 C 376.035156 257.128906 373.757812 256.308594 371.398438 255.394531 C 369.042969 254.476562 365.035156 253.011719 362.492188 252.136719 C 356.746094 250.15625 348.472656 246.804688 346.308594 245.578125 C 343.125 243.769531 335.222656 238.820312 332.0625 236.648438 C 330.296875 235.4375 327.832031 233.792969 326.585938 233 C 320.449219 229.078125 319.832031 228.433594 315.304688 221.238281 C 312.992188 217.554688 310.878906 214.203125 310.605469 213.785156 C 310.074219 212.964844 310.175781 212.878906 321.160156 204.660156 C 328.070312 199.488281 329.960938 197.03125 330.300781 192.785156 C 330.507812 190.191406 329.796875 187.496094 327.261719 181.285156 C 321.566406 167.335938 313.261719 161.046875 298.332031 159.375 C 295.1875 159.023438 285.019531 158.667969 276.832031 158.625 L 274.121094 158.609375 L 271.40625 154.574219 C 269.914062 152.355469 266.667969 147.757812 264.191406 144.367188 C 261.71875 140.96875 256.601562 133.960938 252.828125 128.785156 C 234.902344 104.210938 224.238281 90.859375 210.804688 76.15625 C 204.609375 69.378906 200.277344 65.441406 195.617188 62.351562 C 191.519531 59.632812 189.078125 58.976562 185.0625 59.511719 C 180.8125 60.082031 172.917969 63.222656 161.765625 68.785156 C 151.78125 73.761719 146.871094 76.371094 144.648438 77.886719 C 143.8125 78.453125 140.6875 80.359375 137.703125 82.117188 C 134.71875 83.875 130.269531 86.597656 127.824219 88.167969 C 125.375 89.738281 122.882812 91.191406 122.285156 91.398438 C 121.574219 91.648438 121.242188 91.980469 121.324219 92.371094 C 121.585938 93.644531 123.609375 92.921875 128.53125 89.785156 C 145.050781 79.265625 166.03125 67.871094 174.714844 64.703125 C 176.648438 63.996094 179.371094 62.996094 180.761719 62.476562 C 182.871094 61.695312 183.910156 61.535156 186.96875 61.53125 C 190.355469 61.523438 190.8125 61.609375 192.949219 62.664062 C 201.984375 67.113281 224.113281 92.289062 248.515625 125.890625 C 251.839844 130.46875 256.605469 136.980469 259.109375 140.363281 C 267.582031 151.828125 271.914062 158.148438 280.792969 172.027344 C 283.65625 176.503906 291.648438 188.636719 298.550781 198.984375 C 305.453125 209.332031 313.027344 220.894531 315.378906 224.675781 C 320.753906 233.316406 322.144531 235.328125 330.15625 246.023438 C 339.761719 258.859375 346.414062 266.90625 352.976562 273.648438 C 356.210938 276.972656 356.5 277.367188 355.535156 277.179688 C 352.554688 276.597656 347.25 275.804688 340.882812 274.988281 C 337 274.492188 331.261719 273.757812 328.125 273.351562 C 324.988281 272.949219 320.101562 272.375 317.265625 272.070312 C 309.976562 271.289062 304.273438 270.515625 300.820312 269.847656 L 297.851562 269.269531 L 292.757812 265.140625 C 289.957031 262.871094 285.027344 259.035156 281.796875 256.617188 C 275.4375 251.851562 273.828125 250.5625 262.902344 241.480469 C 247.972656 229.066406 235.714844 214.730469 224.101562 196.089844 C 214.550781 180.761719 209.671875 171.679688 200.507812 152.1875 C 197.664062 146.136719 196.46875 143.449219 193.351562 136.113281 C 192.910156 135.070312 192.570312 134.753906 191.886719 134.753906 C 191.3125 134.753906 191.066406 134.914062 191.195312 135.207031 C 191.304688 135.457031 192.210938 137.648438 193.210938 140.082031 C 195.980469 146.820312 207 170.078125 210.136719 175.808594 C 217.484375 189.246094 228.433594 206.539062 234.574219 214.417969 C 241.507812 223.308594 251.039062 233.644531 258.164062 240.003906 C 259.539062 241.230469 260.597656 242.273438 260.515625 242.320312 C 260.4375 242.367188 257.195312 244.015625 253.316406 245.980469 L 246.257812 249.554688 L 238.839844 246.769531 C 234.757812 245.234375 228.28125 242.683594 224.4375 241.101562 C 220.597656 239.515625 215.46875 237.476562 213.042969 236.566406 C 205.933594 233.90625 194.023438 229.605469 190.960938 228.59375 L 188.132812 227.660156 L 189.234375 226.992188 C 191.3125 225.730469 193.804688 224.574219 203.195312 220.515625 C 208.371094 218.277344 212.84375 216.226562 213.132812 215.949219 C 213.53125 215.574219 213.558594 215.351562 213.242188 215.035156 C 212.929688 214.722656 210.753906 215.492188 204.394531 218.164062 C 196.621094 221.429688 187.871094 225.515625 186.851562 226.359375 C 186.558594 226.597656 184.304688 225.875 179.792969 224.105469 C 171.066406 220.671875 158.539062 216.535156 156.882812 216.535156 C 155.855469 216.535156 155.585938 216.664062 155.679688 217.121094 C 155.757812 217.515625 156.636719 217.929688 158.328125 218.371094 C 161.4375 219.179688 173.132812 223.316406 180.21875 226.113281 C 191.199219 230.445312 193.585938 231.355469 199.035156 233.292969 C 208.511719 236.664062 216.273438 239.613281 223.507812 242.597656 C 229.898438 245.238281 240.535156 249.324219 248.429688 252.179688 C 250.21875 252.828125 253.804688 254.289062 256.390625 255.421875 C 270.082031 261.441406 276.429688 264.015625 284.902344 266.980469 C 295.90625 270.835938 301.550781 272.0625 315.007812 273.519531 C 329.855469 275.128906 349.855469 277.871094 357.636719 279.363281 L 364.445312 280.671875 L 367.585938 282.75 C 373.128906 286.414062 379.273438 290.074219 382.929688 291.886719 C 384.882812 292.855469 386.859375 294.007812 387.320312 294.441406 C 388.1875 295.257812 390.945312 299.75 390.71875 299.976562 C 390.652344 300.042969 389.546875 299.59375 388.261719 298.976562 C 386.003906 297.890625 385.789062 297.859375 381.386719 297.917969 L 376.84375 297.984375 L 375.007812 296.046875 C 372.945312 293.863281 371.96875 292.207031 371.660156 290.355469 C 371.394531 288.765625 370.328125 288.417969 369.980469 289.804688 C 369.554688 291.488281 372 295.773438 375.175781 298.917969 C 378.40625 302.117188 385.609375 306.976562 393.636719 311.378906 C 396.679688 313.046875 399.574219 314.738281 400.066406 315.136719 L 400.964844 315.859375 L 399.769531 318.574219 C 399.109375 320.070312 398.414062 321.5625 398.21875 321.902344 C 397.898438 322.457031 397.289062 322.316406 391.71875 320.402344 C 388.335938 319.242188 383.546875 317.53125 381.070312 316.605469 C 378.597656 315.679688 376.15625 314.96875 375.644531 315.027344 C 374.269531 315.1875 374.199219 316.6875 375.511719 317.886719 C 376.796875 319.070312 387.792969 325.871094 392.121094 328.164062 L 395.417969 329.910156 L 395.082031 331.386719 C 394.640625 333.355469 395.0625 336.832031 395.824219 337.503906 C 396.640625 338.21875 397.910156 338.570312 398.730469 338.3125 C 399.105469 338.191406 399.925781 337.125 400.558594 335.945312 C 401.1875 334.765625 401.835938 333.710938 402.003906 333.613281 C 402.167969 333.507812 403.25 333.808594 404.402344 334.277344 C 406.484375 335.125 406.507812 335.148438 407.265625 337.484375 C 408.660156 341.785156 411.148438 344.328125 413.40625 343.761719 C 414.523438 343.480469 415.167969 342.109375 414.824219 340.746094 C 414.621094 339.929688 414.683594 339.839844 415.277344 340.0625 C 418.492188 341.269531 425.191406 346.222656 425.191406 347.390625 C 425.191406 348.027344 423.089844 348.96875 421.660156 348.96875 C 420.5625 348.96875 409.179688 345.132812 401.492188 342.167969 C 395.960938 340.039062 392.257812 338.351562 389.007812 336.484375 C 384.195312 333.722656 369.148438 326.171875 368.445312 326.171875 C 367.367188 326.171875 366.574219 326.550781 366.574219 327.066406 C 366.574219 327.839844 369.695312 330.476562 377.789062 336.542969 C 386.074219 342.753906 387.25 343.460938 392.625 345.472656 C 399.15625 347.921875 409.25 352.519531 411.78125 354.199219 C 415.554688 356.710938 416.726562 358.488281 414.902344 358.949219 C 413.703125 359.25 398.316406 355.285156 388.644531 352.179688 C 383.28125 350.460938 382 349.773438 372.542969 343.546875 C 362.371094 336.84375 356.546875 334.148438 356.167969 335.964844 C 356.085938 336.371094 356.640625 336.710938 358.128906 337.183594 C 360.007812 337.773438 360.746094 338.367188 365.832031 343.375 C 368.925781 346.417969 373.984375 351.066406 377.066406 353.707031 C 387.980469 363.042969 389.644531 364.761719 388.703125 365.703125 C 388.21875 366.1875 386.296875 365.777344 384.410156 364.785156 C 381.179688 363.089844 363.320312 350.539062 359.335938 347.167969 C 358.242188 346.238281 355.796875 344.339844 353.90625 342.949219 C 349.441406 339.660156 342.507812 333.753906 335.273438 327.078125 C 328.199219 320.554688 318.988281 312.433594 316.203125 310.265625 C 314.582031 309.003906 314.226562 308.554688 314.539062 308.171875 C 314.796875 307.863281 314.816406 307.566406 314.59375 307.339844 C 314.097656 306.847656 302.964844 302.578125 299.269531 301.464844 C 297.578125 300.953125 291.714844 299.386719 286.242188 297.980469 C 267.398438 293.136719 262.160156 291.757812 255.664062 289.941406 C 252.085938 288.941406 240.765625 286.011719 230.515625 283.429688 C 220.265625 280.847656 209.847656 278.105469 207.359375 277.335938 C 204.871094 276.5625 199.695312 275.015625 195.851562 273.894531 C 177.804688 268.632812 169.234375 265.738281 155.613281 260.296875 C 141.757812 254.761719 138.726562 253.304688 132.910156 249.402344 C 128.589844 246.503906 123.324219 241.636719 121.441406 238.796875 C 119.53125 235.917969 111.015625 216.40625 104.222656 199.347656 C 103.269531 196.957031 101.894531 193.699219 101.164062 192.109375 C 98.847656 187.058594 91.449219 169.066406 85.835938 154.835938 C 80.335938 140.902344 77.269531 132.175781 72.917969 118.109375 C 66.078125 96.003906 58.832031 77.460938 53.96875 69.640625 C 50.078125 63.375 47.496094 61.191406 44.023438 61.222656 C 41.542969 61.246094 39.460938 62.097656 39.460938 63.089844 C 39.460938 63.976562 39.695312 64 41.394531 63.289062 C 45.074219 61.753906 47.652344 63.21875 51.574219 69.078125 C 56.59375 76.578125 64.222656 95.792969 71.472656 119.183594 C 73.433594 125.511719 73.792969 127.023438 73.394531 127.324219 C 70.945312 129.207031 58.960938 138.941406 55.382812 141.960938 C 44.457031 151.175781 20.335938 171.945312 14.347656 177.296875 C 4.945312 185.691406 -11.359375 201.363281 -11.492188 202.128906 C -11.707031 203.320312 -10.484375 202.832031 -8.378906 200.882812 C -7.25 199.839844 -2.902344 195.722656 1.28125 191.738281 C 10.28125 183.164062 16.484375 177.554688 27.519531 168.007812 C 46.140625 151.90625 61.347656 139.050781 67.503906 134.214844 C 69.492188 132.648438 71.832031 130.730469 72.695312 129.945312 L 74.269531 128.523438 L 76.179688 134.082031 C 79.8125 144.65625 87.589844 164.46875 95.476562 183.242188 C 97.859375 188.914062 100.824219 196 102.066406 198.984375 C 103.308594 201.96875 105.625 207.425781 107.210938 211.105469 C 111.0625 220.054688 111 219.84375 110.164062 221.199219 C 109.785156 221.8125 108.714844 223.578125 107.777344 225.121094 C 104.695312 230.226562 79.523438 266.320312 72.894531 275.152344 C 66.324219 283.90625 55.636719 295.585938 49.230469 301.015625 C 47.730469 302.289062 47.019531 302.664062 46.335938 302.542969 C 45.839844 302.457031 43.882812 302.101562 41.996094 301.753906 C 37.507812 300.933594 33.949219 301.167969 31.308594 302.460938 C 28.320312 303.921875 24.027344 308.675781 22.097656 312.660156 C 20.011719 316.964844 17.96875 319.769531 14.695312 322.828125 C 12.105469 325.246094 11.332031 326.535156 12.472656 326.535156 C 13.191406 326.535156 16.183594 324.097656 18.167969 321.894531 C 20.355469 319.460938 22.023438 316.898438 23.691406 313.390625 C 25.226562 310.167969 29.113281 305.769531 31.84375 304.164062 C 33.359375 303.273438 33.804688 303.195312 37.46875 303.195312 C 39.660156 303.195312 42.320312 303.417969 43.382812 303.691406 L 45.3125 304.1875 L 43.742188 305.25 C 42.882812 305.835938 40.914062 306.957031 39.371094 307.742188 C 36.628906 309.144531 35.730469 310.25 37.34375 310.25 C 38.46875 310.25 42.941406 308.007812 45.226562 306.292969 C 47.460938 304.621094 47.351562 304.613281 51.402344 306.636719 C 55.644531 308.753906 64.113281 312.03125 66.019531 312.292969 C 67.378906 312.480469 67.8125 312.707031 68.066406 313.382812 C 68.246094 313.847656 68.546875 314.234375 68.738281 314.234375 C 68.925781 314.234375 72.476562 311.957031 76.617188 309.175781 C 83.558594 304.515625 86.960938 301.960938 103.871094 288.71875 C 114.878906 280.09375 134.394531 265.5625 139.785156 261.972656 C 142.71875 260.019531 145.121094 258.300781 145.121094 258.15625 C 145.121094 258.011719 148.5 259.261719 152.628906 260.933594 C 167.355469 266.890625 176.507812 270.011719 196.113281 275.757812 C 203.902344 278.042969 206.859375 279.039062 206.585938 279.292969 C 205.585938 280.203125 142.660156 311.851562 129.382812 318.121094 C 105.867188 329.222656 83.894531 338.570312 68.949219 343.828125 C 48.273438 351.097656 24.765625 357.546875 -1.066406 363.03125 C -16.4375 366.292969 -19.863281 366.925781 -25.488281 367.539062 C -28.917969 367.910156 -29.480469 368.0625 -29.59375 368.660156 C -29.71875 369.3125 -29.53125 369.335938 -25.800781 369.125 C -18.199219 368.6875 9.597656 362.886719 29.328125 357.617188 C 60.210938 349.371094 78.476562 342.894531 108.753906 329.449219 C 127.746094 321.015625 166.601562 301.996094 196.683594 286.410156 L 209.347656 279.84375 L 223.460938 283.433594 C 231.222656 285.40625 239.609375 287.511719 242.097656 288.117188 C 244.585938 288.71875 249.308594 289.972656 252.589844 290.902344 C 255.875 291.832031 262.226562 293.542969 266.703125 294.703125 C 271.179688 295.863281 279.890625 298.121094 286.0625 299.714844 C 296.464844 302.410156 304.371094 304.839844 308.316406 306.5625 C 310.988281 307.726562 319.15625 314.644531 335.09375 329.238281 C 338.574219 332.429688 342.277344 335.777344 343.320312 336.679688 L 345.21875 338.324219 L 345.425781 347.535156 C 345.628906 356.574219 345.851562 358.738281 346.914062 361.988281 C 347.644531 364.226562 349.703125 367.519531 351.140625 368.75 C 353.769531 371 354.1875 371.3125 355.378906 371.925781 C 356.0625 372.273438 357.761719 372.960938 359.15625 373.449219 C 362.421875 374.59375 366.9375 374.625 372.542969 373.542969 C 379.839844 372.136719 382.203125 371.972656 388.28125 372.453125 C 395.015625 372.988281 400.832031 373.757812 403.644531 374.492188 C 405.660156 375.015625 406.375 374.960938 406.375 374.285156 C 406.375 373.5 404.394531 372.808594 399.667969 371.945312 C 396.890625 371.4375 393.800781 370.851562 392.808594 370.644531 C 391.8125 370.4375 387.984375 370.246094 384.304688 370.222656 C 378.128906 370.179688 377.3125 370.253906 373.808594 371.152344 C 366.226562 373.101562 358.953125 372.171875 353.78125 368.597656 C 351.8125 367.242188 349.820312 364.121094 348.628906 360.539062 C 347.636719 357.550781 347.613281 357.257812 347.558594 348.878906 C 347.503906 341.046875 347.550781 340.324219 348.082031 340.730469 C 349.296875 341.65625 352.289062 344.082031 352.460938 344.285156 C 352.558594 344.398438 355.492188 346.585938 358.972656 349.144531 C 362.457031 351.703125 367.097656 355.132812 369.285156 356.765625 C 374.359375 360.546875 381.164062 365.097656 384.011719 366.609375 C 387.601562 368.519531 390.816406 368.027344 390.816406 365.570312 C 390.816406 364.382812 389.191406 361.753906 387.792969 360.675781 C 386.339844 359.554688 371.265625 346.285156 368.5625 343.75 L 366.03125 341.375 L 372.214844 345.46875 C 379.421875 350.238281 383.667969 352.507812 387.851562 353.820312 C 390.78125 354.738281 404.375 358.550781 409.453125 359.875 C 412.921875 360.78125 415.425781 360.753906 416.640625 359.800781 C 418.667969 358.203125 417.234375 355.351562 413.105469 352.78125 C 409.949219 350.816406 399.648438 346.230469 392.625 343.660156 C 388.484375 342.148438 387.152344 341.351562 380.140625 336.191406 C 372.191406 330.335938 371.277344 329.652344 371.277344 329.550781 C 371.277344 329.328125 378.949219 333.199219 385.570312 336.761719 C 389.550781 338.902344 394.679688 341.378906 396.96875 342.261719 C 419.929688 351.128906 421.738281 351.632812 424.859375 350.042969 C 426.464844 349.222656 427.152344 347.941406 426.8125 346.394531 C 426.570312 345.3125 424.460938 343.207031 422.695312 342.292969 C 421.449219 341.652344 421.175781 340.875 420.320312 335.582031 C 419.699219 331.722656 419.640625 330.847656 420.042969 331.46875 C 420.1875 331.699219 421.714844 332.378906 423.4375 332.988281 C 426.796875 334.167969 428.867188 335.601562 437.167969 342.484375 C 446.425781 350.160156 456.859375 357.445312 462.78125 360.363281 C 467.25 362.566406 471.433594 363.925781 475.601562 364.535156 C 477.835938 364.863281 492.832031 367.863281 496.75 368.769531 C 497.882812 369.03125 497.859375 367.675781 496.71875 367.15625 " fill-opacity="1" fill-rule="nonzero"/></g></svg>